<?xml version="1.0" encoding="utf-8"?>
<!-- Svg Vector Icons : http://www.onlinewebfonts.com/icon -->
<!DOCTYPE svg PUBLIC "-//W3C//DTD SVG 1.1//EN" "http://www.w3.org/Graphics/SVG/1.1/DTD/svg11.dtd">
<svg version="1.1" xmlns="http://www.w3.org/2000/svg" xmlns:xlink="http://www.w3.org/1999/xlink" x="0px" y="0px" viewBox="0 0 256 256" enable-background="new 0 0 256 256" xml:space="preserve">
<metadata> Svg Vector Icons : http://www.onlinewebfonts.com/icon </metadata>
<g> <path fill="#ed959b" d="M235.5,127.5c2.8,24.5-4.1,49.2-19.3,68.7c-1,1.3-2.1,2.6-3.2,3.9c-1.3,1.6-2.8,3.1-4.2,4.6 c-0.7,0.7-1.4,1.4-2.1,2l-0.6,0.6c-0.9,0.8-1.9,1.7-2.7,2.5c-1.9,1.6-3.9,3.2-6,4.7l-0.5,0.4c-1.2,0.8-2.4,1.7-3.7,2.5l-2.1,1.3 c-1,0.7-2.1,1.3-3.3,1.9c-1.1,0.5-2.1,1.1-3.2,1.7c-2.3,1.2-4.6,2.2-7,3.2c-0.2,0.1-0.3,0.1-0.5,0.2l-1.3,0.5 c-0.9,0.4-1.9,0.7-2.7,1c-0.9,0.3-2.2,0.7-3.3,1.1c-1.1,0.3-2.4,0.8-3.7,1.1l-0.3,0.1c-1.1,0.3-2.3,0.6-3.5,0.8 c-1.2,0.2-2.3,0.5-3.4,0.7c-0.3,0.1-0.5,0.1-0.8,0.1c-4.3,0.8-8.6,1.2-12.9,1.4h-7.6c-1,0-1.9,0-2.9-0.2c-7-0.5-14-1.8-20.8-3.9 c-5.1-1.5-10-3.5-14.7-5.9c-0.2-0.1-0.5-0.2-0.7-0.3c-1.3-0.6-2.5-1.3-3.7-2c-1.1-0.6-2.2-1.3-3.3-1.9c-0.2-0.1-0.3-0.2-0.4-0.3 c-1.2-0.7-2.3-1.4-3.3-2.2c-0.1,0-0.2-0.1-0.3-0.2c-1-0.7-1.9-1.3-2.8-2c-0.4-0.2-0.7-0.5-1-0.8c-1-0.8-1.9-1.5-2.9-2.3 c-1-0.8-2.2-1.9-3.2-2.8c-4.3-3.9-8.1-8.2-11.6-12.9c-0.9-1.2-1.7-2.4-2.5-3.6c-0.8-1.2-1.5-2.2-2.2-3.4c-0.2-0.3-0.5-0.7-0.7-1.1 c-0.5-0.9-1-1.9-1.5-2.7c-0.2-0.3-0.4-0.6-0.5-1c-0.5-1-1-1.9-1.6-3c-0.2-0.5-0.5-1-0.7-1.4c-0.4-0.9-0.9-1.9-1.3-2.8 c-0.6-1.3-1.1-2.6-1.6-3.9c-0.5-1.3-0.8-2.1-1.1-3.1c-0.7-2.1-1.3-4.1-1.9-6.2c-0.4-1.3-0.7-2.6-0.9-3.9c-0.1-0.5-0.2-1-0.3-1.5 v-0.3c-0.2-1.2-0.5-2.4-0.6-3.6c-0.1-1.2-0.3-1.9-0.4-2.9c-0.1-1-0.2-1.7-0.3-2.5c-0.1-0.8-0.2-2-0.3-3c-0.1-1-0.1-2-0.2-3 c-0.1-2-0.1-4.1,0-6.2v-2.5c0-1.2,0.1-2.4,0.3-3.5c0.1-1.5,0.3-3,0.5-4.5c0.2-1.5,0.5-2.9,0.7-4.4c0,0,0-0.1,0-0.1 c0.6-3,1.3-6,2.1-8.9C53,104.6,56,97.6,59.8,91c0.8-1.3,1.6-2.6,2.4-3.9c0.8-1.3,1.5-2.2,2.2-3.3l0.3-0.4c0.8-1.1,1.6-2.2,2.5-3.3 c2.2-2.9,4.5-5.7,7.1-8.3c0.2-0.2,0.4-0.5,0.7-0.7c5.9-5.9,12.5-11,19.8-15.1c2.6-1.5,5.2-2.8,7.9-4l1.7-0.7 c0.6-0.2,1.1-0.5,1.9-0.7c1.2-0.5,2.5-1,3.7-1.5c0.3,0,0.5-0.2,0.8-0.3c1.9-0.6,3.6-1.2,5.3-1.7l0.9-0.3c1.4-0.4,2.8-0.7,4.3-1 c0.8-0.2,1.5-0.3,2.3-0.4c0.9-0.2,1.9-0.4,2.9-0.5c1.2-0.2,2.5-0.4,3.7-0.6c0.9-0.1,1.7-0.2,2.6-0.3c0.3,0,0.5,0,0.8,0 c0.6-0.1,1.2-0.1,1.9-0.1c0.3,0,0.6,0,0.9,0c1.2-0.1,2.4-0.1,3.6-0.1h4.4c0.4,0,0.9,0,1.3,0c1.3,0,2.6,0.1,3.9,0.2h0.4 c1.1,0.1,2.2,0.2,3.3,0.4c6.2,0.8,12.2,2.2,18.1,4.2c0.7,0.2,1.5,0.5,2.3,0.8c1.1,0.4,2.2,0.8,3.2,1.2c1,0.4,2.1,0.8,3,1.3 c0.8,0.3,1.6,0.7,2.4,1.1c1.1,0.5,2.3,1.1,3.4,1.7c1.1,0.6,2.4,1.3,3.6,2c2.3,1.4,4.6,2.9,6.9,4.4c1.1,0.8,2.2,1.6,3.3,2.5 c1.1,0.8,1.9,1.4,2.7,2.1c0.2,0.2,0.5,0.4,0.7,0.6c0.8,0.7,1.6,1.4,2.4,2.1l0.6,0.6c0.9,0.9,1.9,1.8,2.7,2.7c1,1,1.9,1.9,2.9,3 s1.9,2,2.7,3.1c0.8,1,1.7,2.2,2.6,3.2c3.4,4.5,6.3,9.2,8.9,14.2c0.6,1.3,1.2,2.5,1.9,3.7c2.2,4.7,4,9.7,5.3,14.7 c1.2,4.6,2.1,9.2,2.6,13.9V127.5z"/> <path fill="#fcefe5" d="M74.9,71.1c-21.5,51-13,113.7,24.3,151.5c-0.2-0.1-0.5-0.3-0.7-0.4c-1.3-0.6-2.5-1.3-3.7-2 c-1.1-0.6-2.2-1.3-3.3-1.9c-0.2-0.1-0.3-0.2-0.4-0.3c-1.2-0.7-2.3-1.4-3.3-2.2c-0.1,0-0.2-0.1-0.3-0.2c-1-0.7-1.9-1.3-2.8-2 c-0.4-0.3-0.7-0.5-1-0.8c-1-0.7-1.9-1.5-2.9-2.3c-1-0.8-2.2-1.9-3.2-2.8c-4.3-3.9-8.2-8.2-11.6-12.9c-0.9-1.2-1.7-2.4-2.5-3.6 c-0.8-1.2-1.5-2.2-2.2-3.4c-0.2-0.3-0.5-0.7-0.7-1.1c-0.5-0.9-1-1.9-1.5-2.7c-0.2-0.3-0.4-0.6-0.5-1c-0.5-1-1-1.9-1.6-3 c-0.2-0.5-0.5-1-0.7-1.4c-0.4-0.9-0.9-1.9-1.3-2.8c-0.6-1.3-1.1-2.6-1.6-3.9c-0.5-1.3-0.8-2.1-1.1-3.1c-0.7-2.1-1.3-4.1-1.9-6.2 c-0.4-1.3-0.7-2.6-0.9-3.9c-0.1-0.5-0.2-1-0.3-1.5v-0.3c-0.2-1.2-0.5-2.4-0.6-3.6c-0.1-1.2-0.3-1.9-0.4-2.9s-0.2-1.7-0.3-2.5 c-0.1-0.8-0.2-2-0.3-3c-0.1-1-0.1-2-0.2-3c-0.1-2-0.1-4.1,0-6.2v-2.5c0-1.2,0.1-2.4,0.3-3.5c0.1-1.5,0.3-3,0.5-4.5 c0.2-1.5,0.5-2.9,0.7-4.4c0,0,0-0.1,0-0.1c0.5-3,1.2-6,2.1-8.9c2.1-7.3,5.1-14.3,8.9-20.9c0.8-1.3,1.6-2.6,2.4-3.9 c0.8-1.3,1.5-2.2,2.2-3.3l0.3-0.4c0.8-1.1,1.6-2.2,2.5-3.3c2.2-2.9,4.5-5.6,7.1-8.2C74.4,71.4,74.6,71.2,74.9,71.1L74.9,71.1z  M216.2,196.2c-1,1.3-2.1,2.6-3.2,3.9c-1.4,1.6-2.8,3.1-4.3,4.6c-0.7,0.7-1.4,1.4-2,2l-0.7,0.6c-0.9,0.8-1.9,1.6-2.7,2.5 c-1.9,1.6-3.9,3.2-6,4.7c-2.1,1.5-0.4,0.3-0.6,0.4c-1.9,1.3-3.7,2.6-5.8,3.8c-1.1,0.7-2.1,1.3-3.3,1.9c-1.1,0.6-2.1,1.2-3.2,1.7 c-2.2,1.2-4.6,2.2-6.9,3.2c-0.6,0.3-1.2,0.5-1.7,0.7l-2.7,1c-1.1,0.4-2.2,0.7-3.3,1.1c-1.1,0.3-2.4,0.7-3.7,1.1h-0.3 c-1.1,0.3-2.3,0.6-3.5,0.8c-1.2,0.2-2.3,0.5-3.4,0.7l-0.8,0.2c-5.5-6-10.7-12.4-15.3-19.1h0.1c14.6,2.4,29.4,1.6,43.7-2.4 C197.1,206.7,207.1,202.2,216.2,196.2z M108.3,114.5c0.4,5.5,1,11,1.9,16.4c18.7,2.1,34,12.8,46.3,26.9c6.9-3,13.7-6.3,20.3-10 C158.9,128.3,133.5,114.7,108.3,114.5z M227.6,98.9c-2.9,5.5-6.3,10.6-10.1,15.4c-23.8-32.9-59.8-58.6-100.1-56.1 c-1.5,0.1-3,0.2-4.6,0.4c0.5-1.9,1-3.8,1.6-5.8c0.6-1.9,1.1-3.9,1.8-5.7l0.9-0.3c1.4-0.4,2.8-0.7,4.3-1c0.8-0.2,1.5-0.3,2.3-0.4 c0.9-0.2,1.9-0.4,2.9-0.5c1.2-0.2,2.5-0.4,3.7-0.6c0.9-0.1,1.7-0.2,2.6-0.3h0.9c0.6-0.1,1.2-0.1,1.9-0.1c0.3,0,0.6,0,0.9,0 c1.2-0.1,2.4-0.1,3.6-0.1h4.4c0.4,0,0.9,0,1.3,0c1.3,0,2.6,0.1,3.9,0.2h0.4c1.1,0.1,2.2,0.2,3.3,0.4c6.2,0.8,12.2,2.2,18.1,4.2 c0.7,0.2,1.5,0.5,2.3,0.8c1.1,0.4,2.2,0.8,3.2,1.2c1,0.4,2.1,0.8,3,1.3c0.8,0.3,1.6,0.7,2.4,1.1c1.1,0.5,2.3,1.1,3.4,1.7 c1.1,0.6,2.4,1.3,3.6,2c2.3,1.4,4.6,2.9,6.9,4.4c1.1,0.8,2.2,1.6,3.3,2.4c1.1,0.8,1.9,1.4,2.7,2.2c0.2,0.2,0.5,0.4,0.7,0.6 c0.8,0.7,1.6,1.4,2.4,2.1L206,69c0.9,0.9,1.9,1.8,2.7,2.7c1,1,1.9,1.9,2.9,3c1,1.1,1.9,2,2.7,3.1c0.8,1,1.7,2.2,2.6,3.2 c3.4,4.5,6.3,9.2,8.9,14.2C226.4,96.3,227,97.6,227.6,98.9L227.6,98.9z"/> <path fill="#fcefe5" d="M109.3,76.4c-0.8,6.1-1.4,12.2-1.5,18.4c33.9-2.5,65.3,14.6,89.9,39c4.1-3.2,8-6.7,11.7-10.4 C184.5,94.2,146.8,75.1,109.3,76.4z M128.5,188c2,4,4.1,7.9,6.3,11.7c36.3,0.2,75.5-14.3,99-40.9c2.3-10.3,2.9-20.9,1.7-31.3 C210.3,159.6,166.8,180.6,128.5,188z"/> <path fill="#fcefe5" d="M158,231.2c-0.2-0.3-0.5-0.6-0.8-0.9c-1-1-1.9-2.1-2.8-3.2c-1.3-1.5-2.6-3-3.7-4.5 c-2.8-3.4-5.4-6.9-7.9-10.5c-0.1-0.1-0.2-0.3-0.3-0.4c-3.4-4.9-18.9-47.3-26.3-64.3c-0.9-2-3.7-11.2-6.7-20.8 c-3-20.7-2.3-41.8,2-62.3c0.3-1.9,0.8-3.7,1.3-5.7c0.5-2,1-3.8,1.6-5.8c0.6-1.9,1.1-3.9,1.8-5.7c-1.9,0.5-3.6,1-5.3,1.7 c-0.3,0-0.5,0.2-0.8,0.3c-1.3,0.5-2.5,0.9-3.7,1.5c-0.6,0.2-1.2,0.5-1.9,0.7l-1.7,0.7c-2.7,1.2-5.4,2.6-7.9,4 c-5.4,15.2-8.3,31.1-8.9,47.2c-1.6,47.8,15.9,94.3,48.6,129.3c1,0,1.9,0.1,2.9,0.2c2.2,0.1,4.5,0.1,6.7,0h0.8 C149.4,232.4,153.8,231.9,158,231.2L158,231.2z"/> <path fill="#ec6c7e" d="M219,77.2L152.3,119l-1-1.6l63.1-47.1L219,77.2L219,77.2z M195.3,28.8L156.6,99l-1.7-0.8l33-73L195.3,28.8z "/> <path fill="#ec6c7e" d="M179.8,23.4c0,7.4,6,13.4,13.4,13.4c7.4,0,13.4-6,13.4-13.4c0-7.4-6-13.4-13.4-13.4 C185.7,10,179.8,16,179.8,23.4z"/> <path fill="#ffffff" d="M183.7,23.4c0,5.2,4.2,9.5,9.5,9.5s9.5-4.2,9.5-9.5c0-5.2-4.2-9.5-9.5-9.5S183.7,18.1,183.7,23.4z"/> <path fill="#ec6c7e" d="M203.3,73.6c0,7.4,6,13.4,13.4,13.4s13.4-6,13.4-13.4c0-7.4-6-13.4-13.4-13.4S203.3,66.2,203.3,73.6z"/> <path fill="#ffffff" d="M207.2,73.6c0,5.2,4.2,9.5,9.5,9.5s9.5-4.2,9.5-9.5c0-5.2-4.2-9.5-9.5-9.5S207.2,68.3,207.2,73.6z"/> <path fill="#fcefe5" d="M174.6,213c-1.1,0.7-2.2,1.4-3.3,2.1l-1.9,1c0.4,0.7,1.1,1.1,1.9,1c23.5-0.3,25.6,4.2,25.7,4.6 c0.1,0.5,0.4,3.3-9.1,9.5c-15.6,10.2-47,13.1-86.2,7.9c-32.2-4.2-64.4-13.6-74.8-21.7c-2.1-1.6-3.1-3.1-2.8-3.9 c0.3-0.9,3.4-5.3,30.7-6.4c-1.6-1.3-3.1-2.6-4.6-4c-24.3,1.4-28.9,5.6-30.1,9c-1,2.8,0.4,5.6,4.2,8.6c11.1,8.6,43.4,18.1,76.8,22.4 c12.1,1.7,24.2,2.5,36.4,2.6c30.1,0,45.5-6.5,52.7-11.2c8.6-5.6,12-10.2,10.8-14.3C199.1,214.2,185.8,213.1,174.6,213L174.6,213z" /> <path fill="#fcefe5" d="M101.7,239.3c-32.2-4.2-64.4-13.6-74.8-21.7c-2.1-1.6-3.1-3.1-2.8-3.9c0.3-0.9,4.3-6.6,44.5-6.6h0.5 c21,0,39.5-3.2,55.4-9.6l-2-3.7c-15.3,6.1-33.1,9.2-53.4,9.2h-0.5c-40.5,0-47.1,5.3-48.5,9.5c-1,2.8,0.4,5.6,4.2,8.6 c11.1,8.6,43.4,18.1,76.8,22.4c12.1,1.7,24.2,2.5,36.4,2.6c9.1,0.1,18.1-0.6,27.1-2.1v-4.3C148.1,242.6,126.5,242.6,101.7,239.3z" /></g>
</svg>