<?xml version="1.0" encoding="utf-8"?>
<!-- Svg Vector Icons : http://www.onlinewebfonts.com/icon -->
<!DOCTYPE svg PUBLIC "-//W3C//DTD SVG 1.1//EN" "http://www.w3.org/Graphics/SVG/1.1/DTD/svg11.dtd">
<svg version="1.1" xmlns="http://www.w3.org/2000/svg" xmlns:xlink="http://www.w3.org/1999/xlink" x="0px" y="0px" viewBox="0 0 256 256" enable-background="new 0 0 256 256" xml:space="preserve">
<metadata> Svg Vector Icons : http://www.onlinewebfonts.com/icon </metadata>
<g> <path fill="#a2c8ce" d="M87.2,208.6c3.2-11.2,10.2-47.3-23.3-68.2c-4.9-3.1-8.9-7.4-11.5-12.6c-16-31.9,9.3-61,21.5-46.4 C102.8,116,89.7,84.1,90,60.8c0.5-28.3,76.6-92.5,120.1-5.4c20,55.9-14.1,68.6-3.4,143.8c0.6,4.4,1.9,8.6,3.7,12.6 c7.1,15.5,4.4,21.8-8.6,26.5C140.4,253.5,93.2,237,93.2,237s-20.8-3.7-8.1-23.1C86.1,212.3,86.7,210.5,87.2,208.6z"/> <path fill="#333333" d="M142.2,246c-8.1,0-16.3-0.4-24.4-1.4c-18.7-2.1-30.3-5.9-31.5-6.4c-1.1-0.2-9.4-2-12.2-8.6 c-1.9-4.5-0.8-10.1,3.4-16.5c0.9-1.4,1.4-3.2,1.9-4.9c3-10.5,10.1-46.2-22.7-66.8c-5.1-3.2-9.3-7.7-12-13.1 c-6.3-12.6-5.9-23.5-4.4-30.4c1.8-8.4,6.3-15.6,11.9-19.3c5.9-3.9,11.9-3.2,16.2,1.9c4.9,5.9,8.7,9.9,11.5,12.3 c3.3,2.8,4.2,2.5,4.3,2.4c0.1,0,0.8-0.5,0.7-4.2c-0.1-2.8-0.6-6.7-1.1-10.9c-0.8-6.1-1.7-13.1-1.6-19.5c0.1-8.1,5.9-18.7,15.5-28.4 c10.5-10.5,23.4-18,36.4-20.9c13-3,25.4-1.4,36.7,4.7c13.2,7,24.6,20,33.9,38.6l0.1,0.1c10.5,29.4,6.3,47.1,1.3,67.6 c-4.6,19-9.8,40.5-4.6,76.4c0.6,4.2,1.8,8.4,3.6,12.2c4,8.6,4.9,14.5,3,19c-1.7,4-5.5,6.8-12.4,9.3l-0.1,0 C178.2,243.8,160.2,246,142.2,246L142.2,246z M59.7,78.9c-1.9,0-4,0.7-6,2c-5,3.3-9.1,9.9-10.7,17.7c-1.4,6.5-1.9,16.8,4.1,28.7 c2.5,4.9,6.3,9.1,11.1,12c14.7,9.2,23.4,22.2,26,38.7c2,13.2-0.5,25.1-2.2,31c-0.5,1.9-1.1,3.9-2.2,5.6c-3.7,5.7-4.8,10.4-3.2,14 c2.4,5.6,10.3,7.1,10.4,7.1l0.2,0.1c0.1,0,12,4.1,31.1,6.3c25.7,2.8,51.7,1.1,76.8-5.1c6.1-2.2,9.5-4.7,10.8-7.9 c1.6-3.7,0.6-8.9-3-16.9c-1.9-4.1-3.2-8.5-3.8-13c-5.2-36.4,0-58.2,4.7-77.4c4.8-20.1,9-37.4-1.2-66C181.2,13.4,153.9,9.6,134.8,14 c-12.6,2.9-25,10-35.2,20.2c-9,9-14.6,19.2-14.8,26.6c-0.1,6.2,0.8,13.1,1.6,19.1c1.3,9.9,2.1,16.4-1.2,17.8 c-2.6,1.1-6.8-1.1-18.8-15.4C64.5,80,62.2,78.9,59.7,78.9z"/> <path fill="#ffffff" d="M103.1,92c0,4.4,2.4,8,5.4,8c3,0,5.4-3.6,5.4-8c0-4.4-2.4-8-5.4-8C105.6,84.1,103.1,87.6,103.1,92z"/> <path fill="#ffffff" d="M103.1,150.1c0,4.4,2.4,8,5.4,8c3,0,5.4-3.6,5.4-8c0-4.4-2.4-8-5.4-8C105.6,142.1,103.1,145.7,103.1,150.1 L103.1,150.1z"/> <path fill="#ffffff" d="M168.2,92c0,4.4,2.4,8,5.4,8s5.4-3.6,5.4-8c0-4.4-2.4-8-5.4-8S168.2,87.6,168.2,92z"/> <path fill="#ffffff" d="M168.2,150.1c0,4.4,2.4,8,5.4,8s5.4-3.6,5.4-8c0-4.4-2.4-8-5.4-8S168.2,145.7,168.2,150.1L168.2,150.1z"/> <path fill="#ffffff" d="M136.2,55.4c0,4.4,2.4,8,5.4,8c3,0,5.4-3.6,5.4-8c0-4.4-2.4-8-5.4-8C138.6,47.4,136.2,51,136.2,55.4z"/> <path fill="#ffffff" d="M136.2,117.6c0,4.4,2.4,8,5.4,8c3,0,5.4-3.6,5.4-8l0,0c0-4.4-2.4-8-5.4-8 C138.6,109.6,136.2,113.2,136.2,117.6z"/> <path fill="#ffffff" d="M136.2,179.8c0,4.4,2.4,8,5.4,8c3,0,5.4-3.6,5.4-8c0-4.4-2.4-8-5.4-8C138.6,171.9,136.2,175.4,136.2,179.8z "/> <path fill="#333333" d="M144.3,222c-9.6,0-18.4-0.4-25.9-1.1c-23.6-1.9-40-5.7-40.1-5.8l0.6-2.5c0.2,0,16.4,3.8,39.8,5.7 c21.6,1.7,53.8,2.2,85-5.7l0.6,2.5C183.7,220.4,162.5,222,144.3,222L144.3,222z M104.7,101.3c-3.8,0-6.7-4.1-6.7-9.3s3-9.3,6.7-9.3 c3.8,0,6.7,4.1,6.7,9.3S108.5,101.3,104.7,101.3z M104.7,85.4c-2.2,0-4.1,3.1-4.1,6.7c0,3.6,1.9,6.7,4.1,6.7c2.2,0,4.1-3.1,4.1-6.7 C108.8,88.4,106.9,85.4,104.7,85.4z M104.7,159.4c-3.8,0-6.7-4.1-6.7-9.3s3-9.3,6.7-9.3c3.8,0,6.7,4.1,6.7,9.3 C111.4,155.3,108.5,159.4,104.7,159.4z M104.7,143.4c-2.2,0-4.1,3.1-4.1,6.7s1.9,6.7,4.1,6.7c2.2,0,4.1-3.1,4.1-6.7 C108.8,146.5,106.9,143.4,104.7,143.4z M169.8,101.3c-3.8,0-6.7-4.1-6.7-9.3s3-9.3,6.7-9.3s6.7,4.1,6.7,9.3 S173.6,101.3,169.8,101.3z M169.8,85.4c-2.2,0-4.1,3.1-4.1,6.7c0,3.6,1.9,6.7,4.1,6.7c2.2,0,4.1-3.1,4.1-6.7 C173.9,88.4,172,85.4,169.8,85.4z M169.8,159.4c-3.8,0-6.7-4.1-6.7-9.3s3-9.3,6.7-9.3s6.7,4.1,6.7,9.3 C176.5,155.3,173.6,159.4,169.8,159.4z M169.8,143.4c-2.2,0-4.1,3.1-4.1,6.7s1.9,6.7,4.1,6.7c2.2,0,4.1-3.1,4.1-6.7 C173.9,146.5,172,143.4,169.8,143.4z M137.7,64.7c-3.8,0-6.7-4.1-6.7-9.3c0-5.2,3-9.3,6.7-9.3c3.8,0,6.7,4.1,6.7,9.3 C144.4,60.6,141.5,64.7,137.7,64.7z M137.7,48.7c-2.2,0-4.1,3.1-4.1,6.7c0,3.6,1.9,6.7,4.1,6.7c2.2,0,4.1-3.1,4.1-6.7 C141.8,51.8,139.9,48.7,137.7,48.7z M137.7,126.9c-3.8,0-6.7-4.1-6.7-9.3c0-5.2,3-9.3,6.7-9.3c3.8,0,6.7,4.1,6.7,9.3 S141.5,126.9,137.7,126.9L137.7,126.9z M137.7,110.9c-2.2,0-4.1,3.1-4.1,6.7s1.9,6.7,4.1,6.7c2.2,0,4.1-3.1,4.1-6.7 S139.9,110.9,137.7,110.9z M137.7,189.1c-3.8,0-6.7-4.1-6.7-9.3s3-9.3,6.7-9.3c3.8,0,6.7,4.1,6.7,9.3S141.5,189.1,137.7,189.1z  M137.7,173.2c-2.2,0-4.1,3.1-4.1,6.7s1.9,6.7,4.1,6.7c2.2,0,4.1-3.1,4.1-6.7S139.9,173.2,137.7,173.2z"/></g>
</svg>