<?xml version="1.0" encoding="utf-8"?>
<!-- Svg Vector Icons : http://www.onlinewebfonts.com/icon -->
<!DOCTYPE svg PUBLIC "-//W3C//DTD SVG 1.1//EN" "http://www.w3.org/Graphics/SVG/1.1/DTD/svg11.dtd">
<svg version="1.1" xmlns="http://www.w3.org/2000/svg" xmlns:xlink="http://www.w3.org/1999/xlink" x="0px" y="0px" viewBox="0 0 256 256" enable-background="new 0 0 256 256" xml:space="preserve">
<metadata> Svg Vector Icons : http://www.onlinewebfonts.com/icon </metadata>
<g> <path fill="#ffffff" d="M19.8,103.5h167.7c1.2,0,2.1,0.9,2.1,2.1v19.1H17.6v-19.1C17.6,104.5,18.6,103.5,19.8,103.5z M17.6,132.4 h171.9v14.8H17.6V132.4z M187.4,213H19.8c-1.2,0-2.1-0.9-2.1-2.1v-56h171.9v45.9c-0.1,0.5-0.1,1.1,0,1.6v8.5 C189.6,212.1,188.6,213,187.4,213L187.4,213z"/> <path fill="#6cc7df" d="M19.8,103.5h167.7c1.2,0,2.1,0.9,2.1,2.1v19.1H17.6v-19.1C17.6,104.5,18.6,103.5,19.8,103.5z M17.6,132.4 h171.9v14.8H17.6V132.4z M187.4,205.1H19.8c-1.2,0-2.1-0.9-2.1-2.1v-48.1h171.9v45.9c-0.1,0.5-0.1,1.1,0,1.6v0.6 C189.6,204.2,188.6,205.1,187.4,205.1L187.4,205.1z"/> <path fill="#f0d989" d="M17.6,132.4h171.9v14.8H17.6V132.4z"/> <path fill="#ffffff" d="M238.2,99.4l-33.7,99.7c-0.2,0.5-0.6,1-1.1,1.2c-0.5,0.3-1.1,0.3-1.6,0.1l-4.6-1.6v-93.2 c0-5.4-4.4-9.8-9.8-9.8h-70.8l7.9-23.3c0.7-2-0.4-4.2-2.4-4.8l-35-11.8c-2-0.7-4.2,0.4-4.8,2.4L71.1,91.4c-0.6,1.7,0.1,3.6,1.6,4.5 H58l17.4-51.5c0.4-1.1,1.6-1.7,2.7-1.3l158.8,53.7c0.5,0.2,1,0.6,1.2,1.1C238.4,98.3,238.4,98.9,238.2,99.4L238.2,99.4z"/> <path fill="#254258" d="M245,94.4c-1.2-2.3-3.2-4.1-5.6-4.9L80.5,35.8c-5.1-1.7-10.7,1-12.4,6.1l-18.2,54H19.8 c-5.4,0-9.8,4.4-9.8,9.8V211c0,5.4,4.4,9.8,9.8,9.8h167.7c5.4,0,9.8-4.4,9.8-9.8v-4l2.2,0.7c1,0.3,2.1,0.5,3.1,0.5 c1.5,0,3-0.3,4.3-1c2.3-1.2,4.1-3.2,4.9-5.6l33.7-99.7C246.3,99.4,246.1,96.7,245,94.4z M19.8,103.5h167.7c1.2,0,2.1,0.9,2.1,2.1 v19.1H17.6v-19.1C17.6,104.5,18.6,103.5,19.8,103.5z M79.6,90.3l8.7-25.9l27.7,9.4l-7.5,22.1H96L79.6,90.3z M17.6,132.4h171.9v14.8 H17.6V132.4z M187.4,213H19.8c-1.2,0-2.1-0.9-2.1-2.1v-56h171.9v45.9c-0.1,0.5-0.1,1.1,0,1.6v8.5C189.6,212.1,188.6,213,187.4,213 L187.4,213z M238.2,99.4l-33.7,99.7c-0.2,0.5-0.6,1-1.1,1.2c-0.5,0.3-1.1,0.3-1.6,0.1l-4.6-1.6v-93.2c0-5.4-4.4-9.8-9.8-9.8h-70.8 l7.9-23.3c0.7-2-0.4-4.2-2.4-4.8l-35-11.8c-2-0.7-4.2,0.4-4.8,2.4L71.1,91.4c-0.6,1.7,0.1,3.6,1.6,4.5H58l17.4-51.5 c0.4-1.1,1.6-1.7,2.7-1.3l158.8,53.7c0.5,0.2,1,0.6,1.2,1.1S238.4,98.9,238.2,99.4L238.2,99.4z"/> <path fill="#254258" d="M77.6,178.4H32.9c-2.1,0-3.8,1.7-3.8,3.8c0,2.1,1.7,3.8,3.8,3.8h44.7c2.1,0,3.8-1.7,3.8-3.8 C81.5,180.1,79.7,178.4,77.6,178.4z M102,178.4h-8.2c-2.1,0-3.8,1.7-3.8,3.8c0,2.1,1.7,3.8,3.8,3.8h8.2c2.1,0,3.8-1.7,3.8-3.8 C105.9,180.1,104.1,178.4,102,178.4z"/> <path fill="#f0d989" d="M79.6,90.3l8.7-25.9l27.7,9.4l-7.5,22.1H96L79.6,90.3z"/> <path fill="#dd7764" d="M238.2,99.4l-33.7,99.7c-0.2,0.5-0.6,1-1.1,1.2c-0.5,0.3-1.1,0.3-1.6,0.1l-4.6-1.6v-93.2 c0-5.4-4.4-9.8-9.8-9.8h-70.8l7.9-23.3c0.7-2-0.4-4.2-2.4-4.8l-35-11.8c-2-0.7-4.2,0.4-4.8,2.4L71.1,91.4c-0.6,1.7,0.1,3.6,1.6,4.5 H58l17.4-51.5c0.4-1.1,1.6-1.7,2.7-1.3l158.8,53.7c0.5,0.2,1,0.6,1.2,1.1C238.4,98.3,238.4,98.9,238.2,99.4L238.2,99.4z"/></g>
</svg>