<?xml version="1.0" encoding="utf-8"?>
<!-- Svg Vector Icons : http://www.onlinewebfonts.com/icon -->
<!DOCTYPE svg PUBLIC "-//W3C//DTD SVG 1.1//EN" "http://www.w3.org/Graphics/SVG/1.1/DTD/svg11.dtd">
<svg version="1.1" xmlns="http://www.w3.org/2000/svg" xmlns:xlink="http://www.w3.org/1999/xlink" x="0px" y="0px" viewBox="0 0 256 256" enable-background="new 0 0 256 256" xml:space="preserve">
<metadata> Svg Vector Icons : http://www.onlinewebfonts.com/icon </metadata>
<g> <path fill="#fcefe5" d="M42.4,88.1v157.4h181.1V88.1l-90.5-63.8L42.4,88.1z"/> <path fill="#ec6c7e" d="M132.9,172.9c-17.1,0-31,13.9-31,31v41.6h61.9v-41.6C163.8,186.8,150,173,132.9,172.9L132.9,172.9z  M87.1,245.5H10l7.3-9.9c2.9-4,7.6-6.4,12.5-6.4h37.5c5,0,9.6,2.4,12.5,6.4L87.1,245.5z"/> <path fill="#ed959b" d="M128.6,72.1c0,2.4,1.9,4.3,4.3,4.3c2.4,0,4.3-1.9,4.3-4.3c0,0,0,0,0,0c0-2.4-1.9-4.3-4.3-4.3 C130.5,67.8,128.6,69.7,128.6,72.1C128.6,72.1,128.6,72.1,128.6,72.1z"/> <path fill="#ed959b" d="M87.3,95.8h90.9v41.1H87.3V95.8z"/> <path fill="#ffffff" d="M113.3,103c-4.5,1.8-8,5.3-9.9,9.8c-0.6,1.6-0.6,3.4,0,5.1c1.7,4.7,5.3,8.5,9.9,10.5c0.6,0.3,1.3,0,1.6-0.6 c0.1-0.2,0.1-0.3,0.1-0.5v-23.1c0-0.7-0.5-1.2-1.2-1.2C113.6,102.9,113.5,102.9,113.3,103z M121.9,127.6c-2.7-7.7-2.7-16.2,0-23.9 V127.6z M129.2,126.2c-2.4-6.8-2.4-14.3,0-21.1V126.2z M136.4,123.9c-1.9-5.3-1.9-11.1,0-16.3V123.9z M143.6,121.2 c-1.3-3.6-1.3-7.5,0-11V121.2z M150.8,119c-0.8-2.1-0.8-4.5,0-6.6V119z"/> <path fill="#ffffff" d="M161.6,110.9l-3.8,2.3c-1.7,1.1-3.7,1.6-5.7,1.6h-38.3c-0.3,0-0.5,0.3-0.5,0.6v0.7c0,0.3,0.2,0.6,0.5,0.6 H152c2.1,0,4.2,0.6,6,1.8l3.6,2.4c0.3,0.2,0.6,0.1,0.8-0.2c0.1-0.1,0.1-0.2,0.1-0.3v-8.9c0-0.3-0.3-0.6-0.6-0.6 C161.8,110.8,161.7,110.8,161.6,110.9z"/> <path fill="#ed959b" d="M246,87.6L140,12.7c-4.3-3-10-3-14.2,0l-106,74.9v30c0.7-0.3,1.3-0.6,1.9-1l96.6-68.3 c8.8-6.2,20.5-6.2,29.3,0c0,0,97.8,69,98.4,69.3V87.6z"/></g>
</svg>