<?xml version="1.0" encoding="utf-8"?>
<!-- Svg Vector Icons : http://www.onlinewebfonts.com/icon -->
<!DOCTYPE svg PUBLIC "-//W3C//DTD SVG 1.1//EN" "http://www.w3.org/Graphics/SVG/1.1/DTD/svg11.dtd">
<svg version="1.1" xmlns="http://www.w3.org/2000/svg" xmlns:xlink="http://www.w3.org/1999/xlink" x="0px" y="0px" viewBox="0 0 256 256" enable-background="new 0 0 256 256" xml:space="preserve">
<metadata> Svg Vector Icons : http://www.onlinewebfonts.com/icon </metadata>
<g> <path fill="#ec6c7e" d="M10,178.3c0,27.6,52.8,50.1,118,50.1s118-22.4,118-50.1s-52.8-50.1-118-50.1S10,150.6,10,178.3z"/> <path fill="#fcefe5" d="M239.6,164.1l-14-101.9H30.4l-14,101.9c-0.5,1.8-0.7,3.6-0.7,5.4c0,26.3,50.3,47.7,112.3,47.7 c62,0,112.3-21.3,112.3-47.6C240.3,167.7,240,165.9,239.6,164.1z"/> <path fill="#ec6c7e" d="M25.5,58.2c0,16.9,45.9,30.6,102.5,30.6c56.6,0,102.5-13.7,102.5-30.6c0,0,0,0,0,0 c0-16.9-45.9-30.6-102.5-30.6C71.4,27.6,25.5,41.3,25.5,58.2L25.5,58.2z"/> <path fill="#ed959b" d="M42.1,55.8c0,14.1,38.5,25.6,85.9,25.6s85.9-11.5,85.9-25.6c0-14.1-38.5-25.6-85.9-25.6 S42.1,41.6,42.1,55.8z"/> <path fill="#ffffff" d="M47.4,55.8c0,3.7,2.7,6.7,6.1,6.7s6.1-3,6.1-6.7c0-3.7-2.7-6.7-6.1-6.7S47.4,52.1,47.4,55.8z"/> <path fill="#ed959b" d="M101.4,165c0-3.8,1.9-7.3,5.1-9.3c3.6-1.8,7.9-1.2,10.8,1.6c6.1,5.6,4.4,19.5-0.7,21.9 C111.4,181.7,101.2,173.6,101.4,165z M141.9,203.4c-1.5,4.5-10.6,4.6-18.5,4.8s-16.5,0.3-18.1-3.9c-2-5.4,7.1-18.7,18.1-18.7 C134.5,185.6,143.8,197.9,141.9,203.4z M91.3,187.9c-1.4-3.3-0.9-7.1,1.4-9.8c2.5-2.3,6.2-2.7,9.1-0.8c5,3,6.4,12,3.1,15.3 C101.6,195.8,93.6,193.5,91.3,187.9z M147.2,177c2.6-1.4,5.9-0.8,7.8,1.5c1.5,2.2,1.8,5,0.7,7.4c-2,4.7-8.9,6.6-11.5,3.9 S142.8,179.3,147.2,177z M130.8,157.5c2.9-2.4,8-3.5,11.6-0.6c2.6,2.5,3.8,6.1,3.3,9.7c-1,8.2-11.2,14.6-15.8,11.7 C125.3,175.5,124.6,162.5,130.8,157.5z"/></g>
</svg>