<?xml version="1.0" encoding="utf-8"?>
<!-- Svg Vector Icons : http://www.onlinewebfonts.com/icon -->
<!DOCTYPE svg PUBLIC "-//W3C//DTD SVG 1.1//EN" "http://www.w3.org/Graphics/SVG/1.1/DTD/svg11.dtd">
<svg version="1.1" xmlns="http://www.w3.org/2000/svg" xmlns:xlink="http://www.w3.org/1999/xlink" x="0px" y="0px" viewBox="0 0 256 256" enable-background="new 0 0 256 256" xml:space="preserve">
<metadata> Svg Vector Icons : http://www.onlinewebfonts.com/icon </metadata>
<g> <path fill="#ed959b" d="M126.9,81.9c47.1-29.4,92.9-46.1,118.7-45.1c-0.3-1.6-0.9-3.2-1.7-4.5c-12.2-19.4-73.9-2.9-137.9,37 c-64,39.9-106,88.1-93.9,107.6c3.2,5.1,9.9,7.8,19.2,8.1C26.9,163.3,67.4,119,126.9,81.9z"/> <path fill="#ec6c7e" d="M243.9,32.3c-3.6-5.8-11.8-8.4-23.1-8.2c9,20.6-32.4,67.2-94.7,106c-44.8,28-88.5,44.5-114.8,45.1 c0.2,0.6,0.5,1.1,0.8,1.6c12.2,19.4,73.9,2.9,137.9-37C214.1,99.9,256.1,51.8,243.9,32.3z"/> <path fill="#fcefe5" d="M50.6,174.5c0,2.2,1.8,4,4,4c2.2,0,4-1.8,4-4c0-2.2-1.8-4-4-4C52.4,170.5,50.6,172.3,50.6,174.5 C50.6,174.5,50.6,174.5,50.6,174.5z"/> <path fill="#fcefe5" d="M75.5,166.3c0,2.2,1.8,4,4,4c2.2,0,4-1.8,4-4c0,0,0,0,0,0c0-2.2-1.8-4-4-4 C77.3,162.3,75.5,164.1,75.5,166.3C75.5,166.3,75.5,166.3,75.5,166.3z"/> <path fill="#fcefe5" d="M97.3,157c0,2.2,1.8,4,4,4c2.2,0,4-1.8,4-4c0,0,0,0,0,0c0-2.2-1.8-4-4-4C99.1,153,97.3,154.8,97.3,157 C97.3,157,97.3,157,97.3,157z"/> <path fill="#fcefe5" d="M115.9,146.8c0,2.2,1.8,4,4,4c2.2,0,4-1.8,4-4c0-2.2-1.8-4-4-4C117.7,142.8,115.9,144.6,115.9,146.8z"/> <path fill="#fcefe5" d="M155.5,122c0,2.2,1.8,4,4,4c2.2,0,4-1.8,4-4c0-2.2-1.8-4-4-4C157.3,118,155.5,119.8,155.5,122L155.5,122z" /> <path fill="#fcefe5" d="M176.6,106.4c0,2.2,1.8,4,4,4c2.2,0,4-1.8,4-4c0-2.2-1.8-4-4-4C178.4,102.4,176.6,104.2,176.6,106.4z"/> <path fill="#fcefe5" d="M194.4,90.7c0,2.2,1.8,4,4,4c2.2,0,4-1.8,4-4s-1.8-4-4-4C196.1,86.7,194.4,88.5,194.4,90.7z"/> <path fill="#fcefe5" d="M208.8,75.1c0,2.2,1.8,4,4,4c2.2,0,4-1.8,4-4c0-2.2-1.8-4-4-4C210.6,71.2,208.8,73,208.8,75.1z"/> <path fill="#fcefe5" d="M116.4,185.1c0,25.9,21,46.9,46.9,46.9c25.9,0,46.9-21,46.9-46.9c0-25.9-21-46.9-46.9-46.9 C137.4,138.2,116.4,159.2,116.4,185.1z"/> <path fill="#ec6c7e" d="M117.7,193.1c5.1-28.7,32.6-47.7,61.2-42.6c9.3,1.7,18,5.8,25.2,12c0.1,0.1,0.2,0.2,0.3,0.3 c1.9,3.6,3.4,7.4,4.3,11.4c-21.9-19.2-55.2-17.1-74.4,4.8c-6.9,7.8-11.3,17.5-12.7,27.9c-2-3.8-3.5-7.8-4.4-12 C117.5,194.2,117.6,193.6,117.7,193.1L117.7,193.1z"/> <path fill="#ed959b" d="M168.7,147.6c12.7,0,24.9,4.5,34.5,12.9l0.4,0.3c3.3,2.8,5.1,6.9,4.9,11.1v0.9 c-21.6-19.6-54.9-17.9-74.5,3.6c-7.2,7.9-11.8,17.8-13.2,28.4h-0.1c-3.3-2.4-5-6.4-4.5-10.5c0.1-1.1,0.3-2.2,0.5-3.4 C121.2,166,143.1,147.6,168.7,147.6z"/> <path fill="#ec6c7e" d="M199.9,207l-1.4-1.3c-0.1,0.1-7.5,7.7-22.2,8.7c-0.8,0.1-1.5-0.6-1.6-1.4c0-0.3,0-0.6,0.2-0.8 c5.5-10.5,7.6-22.6,5.8-34.4l-1.9,0.4c1.8,11.7-0.4,23.6-6.1,33.9c-0.9,1.5-2.6,2.4-4.4,2.2c-9.7-1.1-19-4-27.5-8.7l-0.9,1.7 c8.5,4.7,17.8,7.7,27.4,8.9c0.8,0.1,1.4,0.8,1.3,1.6c0,0.3-0.1,0.5-0.3,0.8c-3.2,3.9-6.9,7.3-11,10.1l1.1,1.6 c5.5-3.7,10.2-8.4,13.9-13.8h0.7C190.7,216.4,199.8,207.2,199.9,207L199.9,207z"/> <path fill="#ffffff" d="M173.2,176.3c0,3.6,2.9,6.5,6.5,6.5s6.5-2.9,6.5-6.5l0,0c0-3.6-2.9-6.5-6.5-6.5S173.2,172.7,173.2,176.3z" /> <path fill="#ec6c7e" d="M174.2,176.3c0,3,2.4,5.4,5.4,5.4c3,0,5.4-2.4,5.4-5.4c0,0,0,0,0,0c0-3-2.4-5.4-5.4-5.4 C176.7,170.9,174.2,173.3,174.2,176.3C174.2,176.3,174.2,176.3,174.2,176.3z"/> <path fill="#ffffff" d="M194.9,205.1c0,3,2.1,5.5,4.7,5.5c2.6,0,4.7-2.4,4.7-5.5s-2.1-5.5-4.7-5.5 C197,199.6,194.9,202.1,194.9,205.1z"/> <path fill="#ec6c7e" d="M195.5,205.1c0,2.6,1.8,4.7,4.1,4.7c2.3,0,4.1-2.1,4.1-4.7c0-2.6-1.8-4.7-4.1-4.7 C197.3,200.4,195.5,202.5,195.5,205.1C195.5,205.1,195.5,205.1,195.5,205.1L195.5,205.1z"/> <path fill="#ffffff" d="M154.1,227.9c0,1.9,1.9,3.5,4.3,3.5s4.3-1.6,4.3-3.5c0-1.9-1.9-3.5-4.3-3.5S154.1,226,154.1,227.9 L154.1,227.9z"/> <path fill="#ec6c7e" d="M154.9,227.9c0,1.6,1.6,2.8,3.5,2.8c1.9,0,3.5-1.3,3.5-2.8l0,0c0-1.6-1.6-2.8-3.5-2.8 C156.5,225.1,154.9,226.4,154.9,227.9z"/> <path fill="#ffffff" d="M134.5,206.9c0,3.5,2.9,6.4,6.4,6.4c3.5,0,6.4-2.9,6.4-6.4c0-3.5-2.8-6.4-6.4-6.4 C137.3,200.5,134.5,203.4,134.5,206.9L134.5,206.9z"/> <path fill="#ec6c7e" d="M135.5,206.9c0,3,2.4,5.4,5.4,5.4s5.4-2.4,5.4-5.4s-2.4-5.4-5.4-5.4S135.5,203.9,135.5,206.9z"/></g>
</svg>