<?xml version="1.0" encoding="utf-8"?>
<!-- Svg Vector Icons : http://www.onlinewebfonts.com/icon -->
<!DOCTYPE svg PUBLIC "-//W3C//DTD SVG 1.1//EN" "http://www.w3.org/Graphics/SVG/1.1/DTD/svg11.dtd">
<svg version="1.1" xmlns="http://www.w3.org/2000/svg" xmlns:xlink="http://www.w3.org/1999/xlink" x="0px" y="0px" viewBox="0 0 256 256" enable-background="new 0 0 256 256" xml:space="preserve">
<metadata> Svg Vector Icons : http://www.onlinewebfonts.com/icon </metadata>
<g> <path fill="#95bec7" d="M18.9,122.8c-8,14.2-4.5,25.8,0,31.7c1.7,2.2,3.2,4.4,5.1,6.1c26.2,23.3,74.1,16.6,126.7-2.5 c63.6-26.6,90.4-60,90.4-91.2c0-0.4,0-1-0.1-1.4c-1.6-13.4-9.9-17-9.9-17c0.4,0.7,0.8,1.4,1.1,2.2c6.9,19.2-31.9,57.6-91,80.2 c-59.1,22.5-116.5,23.1-123.4,4C17,132.8,18.4,125.4,18.9,122.8"/> <path fill="#323333" d="M54.6,154.1c-10.2,0-18.8-1.1-25.6-3.1c-8.1-2.5-13.2-6.3-15.1-11.4c-2.2-5.8-0.1-13.2,6-21.5 c5.7-7.8,15-16.3,26.9-24.7c17.9-12.6,41.1-24.5,65.4-33.6c29.5-10.9,58.6-17.6,82-18.8c23.8-1.2,38.9,3.6,42.6,13.4 c3.7,10-4.2,24.7-21.7,40.2c-18.2,16.2-44,31-72.7,41.6c-28.7,10.6-59.3,17.1-84,17.7C57.1,154,55.8,154.1,54.6,154.1z M200.9,43.4 c-2.1,0-4.4,0.1-6.7,0.2c-23.1,1.2-51.9,7.8-81.2,18.6C88.9,71.2,65.9,83,48.2,95.5C36.6,103.7,27.5,112,22,119.6 s-7.5,14.1-5.7,19.1c1.6,4.2,6.2,7.7,13.5,9.9c7.2,2.2,17.2,3.2,28.6,3c24.4-0.6,54.7-7,83.1-17.5c28.3-10.5,53.8-25.1,71.9-41.1 c16.4-14.6,24.3-28.6,21-37.4C231.5,47.7,219.4,43.4,200.9,43.4z"/> <path fill="#323333" d="M69.5,180.9c-20.8,0-37.2-5.1-48.9-15.1c-1.7-1.5-3-3.2-4.4-5c-0.3-0.4-0.7-0.9-1-1.3 c-5.4-6.8-8.2-19.1-0.1-33.1c0.4-0.6,1.1-0.8,1.7-0.5c0.5,0.3,0.7,0.8,0.6,1.3c-0.1,0.3-0.1,0.7-0.2,1.1c-0.4,2.4-1.6,8.8-1,10.3 c1.6,4.2,6.2,7.7,13.5,9.9c7.2,2.2,17.2,3.2,28.6,3c24.4-0.6,54.7-7,83.1-17.5c28.3-10.5,53.8-25.1,71.8-41.1 c16.4-14.6,24.3-28.6,21-37.4c-0.2-0.7-0.5-1.3-0.9-1.9c-0.4-0.6-0.3-1.4,0.2-1.8c0,0,0.1-0.1,0.1-0.1c0.4-0.2,0.9-0.3,1.3,0 c1.2,0.6,9.2,4.8,10.8,18v0c0,0.4,0.1,1.1,0.1,1.5c0,35-33.3,67.8-93.8,92.3l-0.1,0c-29.4,10.3-54.8,16.1-75.7,17.2 C74.1,180.8,71.8,180.9,69.5,180.9L69.5,180.9z M13.6,136.3c-2.5,9.2-0.2,16.9,3.6,21.6c0.4,0.4,0.7,0.9,1.1,1.3 c1.3,1.7,2.6,3.3,4.1,4.6c11.2,9.6,27,14.5,47.2,14.5c2.2,0,4.5-0.1,6.8-0.2c20.6-1.1,45.8-6.8,75-17c59.4-24.1,92.1-56.1,92.1-90 c0-0.3,0-0.9-0.1-1.3c-0.9-7.2-3.8-11.3-6.1-13.6c2.2,9.9-5.7,23.8-22.2,38.4c-18.2,16.2-44,31-72.7,41.6 c-28.7,10.7-59.3,17.1-84,17.7c-11.9,0.3-21.8-0.7-29.4-3.1c-8.1-2.5-13.2-6.3-15.1-11.4C13.6,138.8,13.5,137.6,13.6,136.3 L13.6,136.3z"/> <path fill="#50a1bf" d="M162.5,204.3c3,9.2,14.5,13.6,28.8,9c14.3-4.6,23.5-15.8,20.5-25c0,0,0,0-2.5,0.8 c-2.7-8.3-15.3-11.6-28.3-7.4C168.1,185.9,159.8,196,162.5,204.3z"/> <path fill="#50a1bf" d="M159.4,162.6c-5.7,6,4,17.1,10.7,20c6.7,2.9,16.9,0.5,22.6-5.5c5.7-6,4.9-13.2-1.8-16.2 c-1.4-0.6-2.9-1-0.4-9.9c-3.1-8.3-9-13.7-21.1-9.2c-12.1,4.5-19.4,14.8-16.3,23.1C153,165,153,165,159.4,162.6L159.4,162.6z"/> <path fill="#323333" d="M167.8,170.2c-1.5,0-3.1-0.2-4.6-0.5c-4.1-1-7-3.4-8.2-6.6c-1.2-3.2-0.5-6.9,1.9-10.4c2.3-3.3,6-6,10.4-7.6 s9-2,12.9-1c4.1,1,7,3.4,8.2,6.6c1.2,3.2,0.5,6.9-1.9,10.4c-2.3,3.3-6,6-10.4,7.6C173.5,169.7,170.7,170.2,167.8,170.2L167.8,170.2 z M175.7,146c-2.5,0-5.1,0.5-7.4,1.4c-3.9,1.5-7.2,3.9-9.2,6.7c-1.9,2.7-2.5,5.6-1.6,8c0.9,2.4,3.2,4.2,6.4,5 c3.4,0.9,7.5,0.5,11.4-0.9c3.9-1.5,7.2-3.9,9.2-6.7c1.9-2.7,2.5-5.6,1.6-8c-0.9-2.4-3.2-4.2-6.4-5C178.3,146.2,177,146,175.7,146 L175.7,146z"/> <path fill="#95bec7" d="M171.9,161.6l11-1.2l2.7,25.8l-11,1.2L171.9,161.6L171.9,161.6z"/> <path fill="#323333" d="M176.2,188c-2.4,0-4.5-1.8-4.7-4.3l-1.9-18.2c-0.3-2.6,1.6-5,4.2-5.3l3.4-0.4c2.6-0.3,5,1.6,5.3,4.2 l1.9,18.2c0.3,2.6-1.6,5-4.2,5.3l-3.4,0.4C176.5,188,176.3,188,176.2,188L176.2,188z M177.6,161.8c-0.1,0-0.2,0-0.3,0l-3.4,0.3 c-1.6,0.2-2.7,1.6-2.5,3.2l1.9,18.2c0.2,1.6,1.6,2.7,3.2,2.5l3.4-0.3c1.6-0.2,2.7-1.6,2.5-3.2l-1.9-18.2 C180.3,162.9,179.1,161.8,177.6,161.8L177.6,161.8z"/> <path fill="#323333" d="M174.9,214.8c-7.6,0-13.7-2.6-16.9-7.1c-2.3-3.3-2.7-7.4-1.2-11.5c3.6-9.7,17.3-17.6,30.5-17.6 c7.6,0,13.7,2.6,16.9,7.1c2.3,3.3,2.7,7.4,1.2,11.5C201.8,206.8,188.1,214.8,174.9,214.8z M187.4,181.1c-12.2,0-24.8,7.2-28.1,16 c-1.2,3.4-0.9,6.5,0.9,9.1c2.6,3.8,8,6,14.8,6c12.2,0,24.8-7.2,28.1-16c1.2-3.4,0.9-6.5-0.9-9.1 C199.5,183.3,194.1,181.1,187.4,181.1z"/></g>
</svg>