<?xml version="1.0" encoding="utf-8"?>
<!-- Svg Vector Icons : http://www.onlinewebfonts.com/icon -->
<!DOCTYPE svg PUBLIC "-//W3C//DTD SVG 1.1//EN" "http://www.w3.org/Graphics/SVG/1.1/DTD/svg11.dtd">
<svg version="1.1" xmlns="http://www.w3.org/2000/svg" xmlns:xlink="http://www.w3.org/1999/xlink" x="0px" y="0px" viewBox="0 0 256 256" enable-background="new 0 0 256 256" xml:space="preserve">
<metadata> Svg Vector Icons : http://www.onlinewebfonts.com/icon </metadata>
<g> <path fill="#f4ce21" d="M199.3,77.9c9.2,0,17.6,2.6,23.9,6.8l0,0c7.3,4.9,11.9,12,11.9,20.2c0,8.1-4.5,15.2-11.9,20.1l0,0 c-6.2,4.1-14.7,6.8-23.9,6.8c-9.2,0-17.6-2.6-23.9-6.8l0,0c-7.3-4.9-11.9-12-11.9-20.1c0-8.1,4.5-15.2,11.9-20.2l0,0 C181.7,80.5,190.1,77.9,199.3,77.9z M213.1,99.9c-3.4-2.3-8.3-3.6-13.8-3.6s-10.4,1.4-13.8,3.7c-2.3,1.5-3.7,3.3-3.7,4.9 c0,1.6,1.4,3.4,3.7,4.9c3.4,2.3,8.3,3.7,13.8,3.7c5.5,0,10.4-1.4,13.8-3.7c2.3-1.5,3.7-3.3,3.7-4.9 C216.7,103.2,215.3,101.5,213.1,99.9z"/> <path fill="#dc5c4d" d="M221,159.8c-3-1.6-6.3-1.9-9.3-1.1c-3.2,0.8-6,2.9-7.8,5.9c-0.4,0.7-0.9,1.3-1.4,1.9 c-3.2,3.2-8,3.5-11.6,1.1L77.4,102.3c-2.9-1.7-4.6-4.8-4.6-7.9h0c0-1.9,0.6-3.7,1.6-5.1c1.5-2.9,1.7-6.2,0.9-9.1 c-0.8-3-2.7-5.7-5.5-7.5c-0.4-0.2-0.7-0.4-1-0.6c-2.9-1.5-6.2-1.7-9.1-0.9c-3.2,0.8-6,2.9-7.8,5.9l-0.2,0.4c-1.6,3-1.9,6.3-1,9.3 c0.8,3.2,2.9,6,5.9,7.8c0.7,0.4,1.4,0.9,1.9,1.4c3.6,3.6,3.6,9.4,0,13c-3.1,3.1-7.9,3.5-11.5,1.2c-2.9-1.6-6.3-1.8-9.3-1 c-3.2,0.8-6,2.9-7.8,5.9c-1.8,3.1-2.1,6.6-1.3,9.7c0.8,3.2,2.9,6,5.9,7.7l0.4,0.2c3,1.6,6.3,1.9,9.3,1.1c3.2-0.8,6-2.9,7.8-5.9 c2.5-4.4,8.1-5.9,12.5-3.3l114,65.8c2.9,1.7,4.6,4.8,4.6,7.9h0c0,1.9-0.6,3.7-1.6,5.1c-1.5,2.9-1.7,6.2-0.9,9.1 c0.8,3,2.7,5.7,5.5,7.5c0.4,0.2,0.7,0.4,1,0.6c2.9,1.5,6.2,1.7,9.1,0.9c3.2-0.8,6-2.9,7.7-5.9c1.8-3.1,2.1-6.5,1.3-9.7 c-0.8-3.2-2.9-6-5.9-7.8c-4.4-2.5-5.9-8.1-3.4-12.5c0.4-0.7,0.9-1.4,1.4-1.9l0,0c3.2-3.2,8-3.5,11.6-1.1c2.9,1.5,6.2,1.7,9.2,0.9 c3.2-0.8,6-2.9,7.8-5.9l0.2-0.4c1.6-3,1.9-6.3,1.1-9.3c-0.8-3.2-2.9-6-5.9-7.7L221,159.8L221,159.8z M206.9,141.1 c7.5-2,15.7-1.2,23,2.8l0.6,0.3c7.4,4.3,12.4,11.2,14.5,18.9c2,7.5,1.2,15.7-2.8,23l-0.3,0.6c-4.3,7.4-11.1,12.4-18.8,14.5 c2,7.7,1.2,16.1-3.2,23.5c-4.3,7.4-11.2,12.4-18.9,14.5c-7.5,2-15.7,1.2-23-2.8l-0.6-0.3c-7.4-4.3-12.4-11.2-14.5-18.9 c-1.3-4.8-1.4-10-0.3-15l-100.5-58c-3.8,3.5-8.3,5.9-13.1,7.3c-7.5,2-15.7,1.2-23-2.8l-0.6-0.3c-7.4-4.3-12.4-11.2-14.5-18.9 c-2.1-7.7-1.2-16.1,3.1-23.5S25.3,93.4,33,91.4C31,84,31.7,76,35.6,68.8c0.2-0.5,0.5-1.1,0.9-1.5c4.3-7.1,11-11.8,18.5-13.9 c7.5-2,15.7-1.2,23,2.8l0.6,0.3C86,60.8,90.9,67.7,93,75.4c1.3,4.8,1.4,10,0.3,15l100.5,58C197.5,144.9,202.1,142.4,206.9,141.1z  M119.4,33.6c5.5,0,10.6,1.6,14.5,4.2l0,0c4.9,3.3,8,8.2,8,13.9c0,5.7-3.1,10.6-8,13.9c-3.8,2.6-9,4.1-14.5,4.1 c-5.5,0-10.7-1.6-14.5-4.1c-5-3.3-8-8.2-8-13.9c0-5.7,3.1-10.6,8-13.9v0C108.7,35.2,113.9,33.6,119.4,33.6L119.4,33.6z M190.4,15.8 c5,0,9.5,2,12.7,5.3l0,0c3.3,3.3,5.3,7.8,5.3,12.8c0,5-2,9.5-5.3,12.7l0,0c-3.3,3.3-7.8,5.3-12.7,5.3c-5,0-9.5-2-12.8-5.3l0,0 c-3.3-3.3-5.3-7.8-5.3-12.7c0-5,2-9.5,5.3-12.8C180.9,17.8,185.4,15.8,190.4,15.8z M190.2,34l0.2-0.2h-0.3l0.1-0.2l0.2,0.2 L190.2,34z"/></g>
</svg>