<?xml version="1.0" encoding="utf-8"?>
<!-- Svg Vector Icons : http://www.onlinewebfonts.com/icon -->
<!DOCTYPE svg PUBLIC "-//W3C//DTD SVG 1.1//EN" "http://www.w3.org/Graphics/SVG/1.1/DTD/svg11.dtd">
<svg version="1.1" xmlns="http://www.w3.org/2000/svg" xmlns:xlink="http://www.w3.org/1999/xlink" x="0px" y="0px" viewBox="0 0 256 256" enable-background="new 0 0 256 256" xml:space="preserve">
<metadata> Svg Vector Icons : http://www.onlinewebfonts.com/icon </metadata>
<g> <path fill="#e9e8e8" d="M40.1,102.6c7.9-25.3,51-49.1,89.6-46.7c38.6,2.4,84.4,15.3,93,68.6c8.6,53.4-36.2,120.3-91.3,121.5 C77.1,247.3,13,189.3,40.1,102.6z"/> <path fill="#ffffff" d="M41.7,95.7c3.9-12.6,39-39,84.7-39.3c52.2-0.4,82,25.6,86.3,52.4c8.6,53.4-36.2,120.3-91.3,121.5 C67.1,231.5,14.5,182.5,41.7,95.7z"/> <path fill="#ffffff" d="M41.7,95.7c3.9-12.6,39-39,84.7-39.3c52.2-0.4,82,25.6,86.3,52.4c8.6,53.4-36.2,120.3-91.3,121.5 C67.1,231.5,14.5,182.5,41.7,95.7z"/> <path fill="#f7b97b" d="M134.3,57.5c0,0-9.7,63.6,12.9,103.7c16.7,29.8,52.1,43.9,52.1,43.9s55.3-70.4,2.4-123.5 C176.9,56.7,134.3,57.5,134.3,57.5z M121.7,57.5c0,0,9.7,63.6-12.9,103.7c-16.7,29.8-52.1,43.9-52.1,43.9S1.5,134.6,54.4,81.6 C79.1,56.7,121.7,57.5,121.7,57.5z"/> <path fill="#f7b97b" d="M162.5,59.2c0,0,16.1-23.9,29.7-34c13.6-10,32.2-15,32.2-15s17.5,12.5,17.2,36.8 c-0.4,24.3-5.7,32.5-5.7,32.5s-5,34.3-10.7,41.5c0,0-12.9-31.1-27.2-43.6C183.6,65,162.5,59.2,162.5,59.2z"/> <path fill="#eca260" d="M201.6,81.6c-10.4-10.5-24-16.4-36.3-19.8c28.1,9,44.3,27.8,47.3,47c4.8,29.9-7.2,64.1-28.3,88.6 c8.6,5.2,14.9,7.7,14.9,7.7S254.5,134.6,201.6,81.6z"/> <path fill="#f7b97b" d="M95,59.2c0,0-35.8-49.3-60.8-49.3c-25,0-20.4,46.8-20.4,46.8l5.7,18.9l2.1,20l11.1,28.2 c0,0,6.4-22.9,20.4-39.3S95,59.2,95,59.2z"/> <path fill="#ffffff" d="M158.7,145c0,3.2,2.6,5.8,5.8,5.8c3.2,0,5.8-2.6,5.8-5.8c0-3.2-2.6-5.8-5.8-5.8 C161.3,139.2,158.7,141.8,158.7,145z"/> <path fill="#ed7777" d="M188.2,70.9c0,0,17.4-28.4,26.2-23.6s-7.2,39.6-7.2,39.6L188.2,70.9z"/> <path fill="#ffffff" d="M85.6,144.6c0,3.2,2.6,5.8,5.8,5.8s5.8-2.6,5.8-5.8c0-3.2-2.6-5.8-5.8-5.8S85.6,141.4,85.6,144.6z"/> <path fill="#ed7777" d="M116.9,203.9l5.2-2.4h13.3l5.7,5.5l-3.1,17.4l-18.6,1.4l-4.3-16.9L116.9,203.9z M68.2,70 c0,0-20.7-29.3-28.6-24c-7.9,5.4,7.9,37.9,8.2,39.7C48.1,87.5,68.2,70,68.2,70z"/> <path fill="#172b3a" d="M239.6,20.4c-3.6-7.2-8.4-12.3-13.2-14c-6.5-2.3-24.8,5-43,21C170.8,38.5,162,51.1,159,55.9 c-9.8-2.3-20.1-3.5-31-3.5c-10.8,0-21.2,1.2-31,3.5C94,51.1,85.2,38.5,72.6,27.4c-18.1-16-36.4-23.3-43-21 c-4.8,1.7-9.7,6.9-13.2,14c-4.3,8.7-6.5,19.9-6.4,32.4c0,4.5,1.7,9.3,3.5,14.4c2.2,6.3,4.5,12.8,4.1,19.8 c-0.8,16.4,9.7,35.4,12.1,39.5c-0.4,3.6-0.6,7.2-0.6,10.8c0,13.4,2.6,27,7.7,40.5c5,13.1,12.1,25.3,21,36.1 c9.2,11.1,19.8,19.8,31.3,26c12.5,6.7,25.5,10.1,38.8,10.1s26.3-3.4,38.8-10.1c11.6-6.2,22.1-15,31.3-26c8.9-10.8,16-23,21-36.1 c5.1-13.5,7.7-27.1,7.7-40.5c0-3.6-0.2-7.2-0.6-10.8c2.4-4.1,12.9-23,12.1-39.5c-0.3-7,1.9-13.5,4.1-19.8c1.8-5.1,3.4-9.9,3.5-14.4 C246.1,40.3,243.9,29.1,239.6,20.4L239.6,20.4z M24.8,87.5c0.4-8.4-2.2-15.9-4.5-22.5c-1.6-4.5-3.1-8.7-3.1-12.1 C17,27,27.1,14.9,32,13.1c2.3-0.6,16.9,2.9,35.9,19.6C78.3,42,86.1,52.5,89.7,57.9c-7,2.1-13.7,5-20.1,8.6 c-2.5-3.8-7.2-10.9-10.9-14.9c-5.7-6.2-14.5-12.1-20.8-8.3c-2.8,1.7-4.2,5.7-4.1,11.8c0.1,5.2,1,10.4,2.7,15.4 c2.6,7.6,6.6,14.6,8.3,17.5c-6.1,8.1-10.5,17.3-13,27.2C28.4,107.8,24.3,96.9,24.8,87.5z M49.8,82.1c-1.8-3.3-4.6-8.5-6.4-14 c-1.3-3.9-2.1-8.1-2.3-12.2c-0.2-4.1,0.5-6.1,0.8-6.6c1.6-0.6,6.8,1.8,11.7,7.1c3.3,3.6,7.8,10.2,10.1,13.9 c-1.8,1.2-3.5,2.5-5.2,3.8C55.3,76.6,52.4,79.2,49.8,82.1L49.8,82.1z M192.6,209.3c-18,21.6-41,33.5-64.6,33.5S81.4,231,63.4,209.3 c-17.2-20.7-27.1-46.9-27.1-72c0-53.8,46-77.8,91.7-77.8c45.6,0,91.7,24.1,91.7,77.8C219.7,162.4,209.8,188.7,192.6,209.3 L192.6,209.3z M197.6,74.1c-1.7-1.3-3.4-2.6-5.2-3.8c2.4-3.6,6.9-10.3,10.1-13.9c4.9-5.3,10.1-7.7,11.7-7.1c0.3,0.6,1,2.6,0.8,6.6 c-0.2,4.2-1,8.3-2.3,12.2c-1.9,5.5-4.6,10.7-6.4,14C203.6,79.2,200.7,76.6,197.6,74.1z M238.8,52.8c0,3.4-1.5,7.6-3.1,12.1 c-2.3,6.6-5,14.2-4.5,22.5c0.5,9.5-3.6,20.3-7.1,27.7c-2.5-9.8-6.9-19.1-13-27.2c1.7-2.8,5.7-9.9,8.3-17.5c1.7-5,2.6-10.2,2.7-15.4 c0.1-6.2-1.3-10.1-4.1-11.8c-6.3-3.8-15.1,2.1-20.8,8.3c-3.7,4-8.5,11.1-10.9,14.9c-6.4-3.6-13.1-6.5-20.1-8.6 c3.7-5.4,11.4-15.9,21.9-25.1c19-16.7,33.6-20.2,35.9-19.6C228.9,14.9,239,27,238.8,52.8z"/> <path fill="#172b3a" d="M132.4,197.7h-8.7c-5.9,0-11,4-12.2,9.6c-0.3,1.3-0.4,2.7-0.2,4.1l0.8,6.5c0,0.3,0.1,0.5,0.1,0.8 c1.5,8.1,5.3,11.6,12.4,11.6h7c7.2,0,11-3.6,12.4-11.6c0-0.2,0.1-0.5,0.1-0.8l0.8-6.5c0.2-1.4,0.1-2.8-0.2-4.1 C143.3,201.6,138.3,197.7,132.4,197.7z M137.7,210.5l-0.8,6.5c0,0.1,0,0.2,0,0.3c-1,5.5-2.6,5.8-5.4,5.8h-7c-2.8,0-4.4-0.3-5.4-5.8 c0-0.1,0-0.2,0-0.3l-0.8-6.5c-0.1-0.6-0.1-1.1,0.1-1.7c0.5-2.4,2.7-4,5.3-4h8.7c2.6,0,4.7,1.7,5.3,4 C137.8,209.4,137.8,210,137.7,210.5L137.7,210.5z M91.4,138.3c-6.3,0-11.5,5.1-11.5,11.5c0,6.3,5.1,11.5,11.5,11.5 c6.3,0,11.5-5.1,11.5-11.5C102.8,143.4,97.7,138.3,91.4,138.3L91.4,138.3z M91.4,148.5c-2.4,0-4.4-2-4.4-4.5c0-2.5,2-4.4,4.5-4.4 c2.4,0,4.4,2,4.4,4.4C95.8,146.6,93.8,148.5,91.4,148.5L91.4,148.5z M164.6,138.3c-6.3,0-11.5,5.1-11.5,11.5 c0,6.3,5.1,11.5,11.5,11.5c6.3,0,11.5-5.1,11.5-11.5C176.1,143.4,171,138.3,164.6,138.3L164.6,138.3z M164.6,148.5 c-2.4,0-4.4-2-4.4-4.5c0-2.5,2-4.4,4.5-4.4c2.4,0,4.4,2,4.4,4.4C169.1,146.6,167.1,148.5,164.6,148.5 C164.6,148.5,164.6,148.5,164.6,148.5L164.6,148.5z"/></g>
</svg>