<?xml version="1.0" encoding="utf-8"?>
<!-- Svg Vector Icons : http://www.onlinewebfonts.com/icon -->
<!DOCTYPE svg PUBLIC "-//W3C//DTD SVG 1.1//EN" "http://www.w3.org/Graphics/SVG/1.1/DTD/svg11.dtd">
<svg version="1.1" xmlns="http://www.w3.org/2000/svg" xmlns:xlink="http://www.w3.org/1999/xlink" x="0px" y="0px" viewBox="0 0 256 256" enable-background="new 0 0 256 256" xml:space="preserve">
<metadata> Svg Vector Icons : http://www.onlinewebfonts.com/icon </metadata>
<g> <path fill="#efd460" d="M109.7,244.4c-36.6-3.3-57.8-17.1-62.4-45c-1.1-6.4-1-4.1-0.5-19c0-2.1,0.1-4.3,0.3-6.4L70,35.9 c1.5-9,7-16.8,15.5-20.9c6.7-3.6,20.2-3.6,20.2-3.6"/> <path fill="#f9f1b2" d="M195.7,221l-76.3,22.6c-14,4.1-28.8-3.9-32.9-17.9c-0.6-2-0.9-4.1-1.1-6.2c0,0-15.4-168.1,14.4-205.1 c1.5-1.9,3.8-3,6.3-3H186c14.1,0,25.7,11,26.4,25.1l8,149.6C221.3,202,211.1,216.4,195.7,221z"/> <path fill="#ffffff" d="M134.4,107.5c7.7,29.8,0.6,57.5,21.8,52s32-34.1-6.3-56c-7.7-29.8-0.6-57.5-21.8-52 c-21.1,5.5-32,34.1-24.3,64C103.9,115.4,103.9,115.4,134.4,107.5z"/> <path fill="#ffffff" d="M159.4,111.9c0,4.2,2.4,7.7,5.4,7.7c3,0,5.4-3.4,5.4-7.7c0,0,0,0,0,0c0-4.2-2.4-7.7-5.4-7.7 C161.8,104.2,159.4,107.6,159.4,111.9C159.4,111.8,159.4,111.9,159.4,111.9z"/> <path fill="#ffffff" d="M119.7,131c2.7,2.9,6.8,3.8,9.1,2c2.3-1.8,1.9-5.6-0.9-8.5c-0.4-0.5-0.9-0.9-1.5-1.3c-3-2.6-7-3-8.9-0.9 C115.8,124.5,116.7,128.4,119.7,131C119.7,131,119.7,131,119.7,131z"/> <path fill="#efd460" d="M173.2,135c1.8,10.3,0.5,17.2-11.5,23.7c-10.8,4.1-23-1.4-26.2-11.3c-3-9.3,2.8-18.6,12.7-23 c1.4-0.6,2.8-1,4.3-1.1C163.5,122.6,171.3,128.9,173.2,135L173.2,135z"/> <path fill="#323333" d="M138.9,119.8c-1.8,0-3.6-0.7-5.3-2.1c-2.1-1.8-3.7-4.4-4.5-7.5c-1.7-6.4,0.8-12.6,5.4-13.8 c4.6-1.2,9.8,3,11.4,9.4c0.8,3.1,0.7,6.2-0.3,8.7c-1,2.7-2.8,4.5-5.1,5C140,119.7,139.5,119.8,138.9,119.8z M136.2,97.5 c-0.4,0-0.9,0.1-1.3,0.2c-3.9,1-5.9,6.4-4.4,12.1c0.7,2.8,2.2,5.2,4.1,6.8c1.8,1.5,3.8,2.1,5.7,1.6c1.9-0.5,3.3-2,4.2-4.2 c0.9-2.3,1-5.1,0.2-7.9C143.3,101.1,139.7,97.5,136.2,97.5L136.2,97.5z M163,119c-1.7,0-3.2-0.9-4.4-2.5c-2.4-3.5-2.4-8-0.2-11.6 c1.1-1.7,2.7-2.6,4.4-2.6c3.4-0.1,6.2,3.6,6.3,8.2c0.1,2.1-0.5,4.1-1.6,5.8C166.3,118,164.7,119,163,119L163,119z M162.9,103.7 L162.9,103.7c-1.3,0-2.4,0.7-3.3,2c-1.9,3.1-1.8,7,0.2,10c0.9,1.2,2.1,1.9,3.3,1.9h0.1c1.2,0,2.4-0.7,3.2-2c1-1.5,1.4-3.3,1.4-5 C167.6,106.8,165.5,103.7,162.9,103.7z M120.6,136.5c-0.2,0-0.5,0-0.7,0c-2-0.2-3.8-1.1-5.2-2.4c-3.3-2.9-4.3-7.2-2.2-9.6 c2.1-2.4,6.5-2.1,9.8,0.8c3.3,2.9,4.3,7.2,2.2,9.6C123.5,135.9,122.1,136.5,120.6,136.5z M116.4,124.2c-1.1-0.1-2.1,0.4-2.8,1.2 c-1.6,1.9-0.7,5.3,2,7.7c1.2,1.1,2.8,1.8,4.5,2.1c1.4,0.1,2.7-0.3,3.4-1.1c1.6-1.9,0.7-5.3-2-7.7 C119.8,124.9,118,124.2,116.4,124.2z M149.6,163.3c-3.3,0-6.5-0.7-9.5-2.2c-4.9-2.3-8.4-6.2-9.9-11c-3-9.3,2.4-19.1,13.1-23.8 c1.5-0.7,3-1,4.6-1.1c11.1-0.7,19.3,5.7,21.3,12.1l0,0.1c1.8,10.5,0.4,17.8-11.8,24.5l-0.1,0C154.9,162.8,152.3,163.3,149.6,163.3 L149.6,163.3z M149.6,126.5c-0.5,0-1.1,0-1.6,0c-1.4,0.1-2.8,0.4-4.1,1c-10,4.5-15.1,13.6-12.4,22.2c1.4,4.4,4.7,8,9.2,10.2 c5,2.4,10.8,2.7,16.1,0.7c11.5-6.3,12.8-12.9,11.1-23C166.1,132.1,159.2,126.5,149.6,126.5L149.6,126.5z"/> <path fill="#323333" d="M102.3,246c-14.8,0-27-11.6-27.8-26.4c-0.1-1.3-3.8-43.1-4-88.8c-0.1-27.1,1.1-50.4,3.6-69 c3.1-23.4,8.1-39.7,15.1-48.3c1.8-2.2,4.5-3.5,7.3-3.5h79.8c14.8,0,27,11.6,27.8,26.4l8,149.6c0.9,16.6-9.7,31.7-25.7,36.4 l-76.3,22.5C107.7,245.6,105,246,102.3,246z M114.3,12.7H96.6c-2,0-3.9,0.9-5.2,2.5c-12,14.9-18.2,54.8-18,115.6 c0.1,46.1,3.9,88.2,4,88.6v0.1c0.7,13.9,12.5,24.5,26.4,23.8c2-0.1,3.9-0.4,5.8-1l76.3-22.6c14.8-4.3,24.6-18.2,23.7-33.6l-8-149.6 c-0.7-13.3-11.7-23.8-25.1-23.8H114.3z"/> <path fill="#323333" d="M100.1,245.8H100c-19-1.7-33.4-6.2-43.9-13.6c-10.9-7.7-17.4-18.4-19.7-32.6c-0.1-0.7-0.2-1.3-0.3-1.8 c-0.7-4.1-0.7-4.3-0.3-14l0.1-3.5c0-2.2,0.1-4.3,0.3-6.5v-0.1l22.9-138c1.5-9.5,7.5-17.7,16.2-21.9c6.9-3.7,20-3.8,20.8-3.8h0 c0.8,0,1.4,0.6,1.4,1.4s-0.6,1.4-1.4,1.4c-0.2,0-13.2,0-19.5,3.4l0,0C68.7,20,63.2,27.4,61.8,36.1l-22.9,138 c-0.2,2.1-0.3,4.2-0.3,6.3v0.1l-0.1,3.5c-0.4,9.6-0.4,9.6,0.3,13.4c0.1,0.5,0.2,1.1,0.3,1.8c4.4,26.5,23.8,40.4,61.2,43.9 c0.8,0,1.3,0.7,1.3,1.4C101.5,245.2,100.9,245.8,100.1,245.8L100.1,245.8L100.1,245.8z"/></g>
</svg>