<?xml version="1.0" encoding="utf-8"?>
<!-- Svg Vector Icons : http://www.onlinewebfonts.com/icon -->
<!DOCTYPE svg PUBLIC "-//W3C//DTD SVG 1.1//EN" "http://www.w3.org/Graphics/SVG/1.1/DTD/svg11.dtd">
<svg version="1.1" xmlns="http://www.w3.org/2000/svg" xmlns:xlink="http://www.w3.org/1999/xlink" x="0px" y="0px" viewBox="0 0 256 256" enable-background="new 0 0 256 256" xml:space="preserve">
<metadata> Svg Vector Icons : http://www.onlinewebfonts.com/icon </metadata>
<g> <path fill="#de4647" d="M241.5,187.9l-13.4-21.4l0,0l0,0c1.2,2,0.6,4.6-1.3,5.8c0,0,0,0,0,0l-42.9,26.8c-0.7,0.4-1.5,0.6-2.2,0.6 c-1.4,0-2.8-0.7-3.6-2l13.4,21.4c4.2,6.7,10.7,11.3,18.4,13.1c2.2,0.5,4.5,0.8,6.7,0.8c5.5,0,10.8-1.5,15.6-4.5 C245.9,220,250.1,201.7,241.5,187.9L241.5,187.9z"/> <path fill="#a7c4d3" d="M181.7,199.7c0.8,0,1.5-0.2,2.2-0.6l42.9-26.8c2-1.2,2.6-3.8,1.3-5.8c0,0,0,0,0,0l0,0l-13.4-21.4 c-8.6-13.8-26.8-18-40.6-9.4c-13.8,8.6-18,26.8-9.4,40.6l13.4,21.4l0,0C178.9,199,180.3,199.7,181.7,199.7L181.7,199.7z  M136.1,46.8c-1.5-7.7-5.9-14.4-12.4-18.8c-6.5-4.4-14.4-6-22.1-4.5c-7.7,1.5-14.4,5.9-18.8,12.5L68.6,56.9 c1.3-1.9,3.9-2.4,5.8-1.1L116.3,84c1.9,1.3,2.4,3.9,1.1,5.8l14.1-20.9C136,62.4,137.6,54.5,136.1,46.8L136.1,46.8z"/> <path fill="#de4647" d="M116.3,84L74.4,55.8c-1.9-1.3-4.5-0.8-5.8,1.1l-14.1,21c-4.4,6.5-6,14.4-4.5,22.1 c1.5,7.7,5.9,14.4,12.4,18.8c4.9,3.3,10.6,5,16.4,5c9.5,0,18.8-4.6,24.5-13l14.1-21C118.8,87.9,118.2,85.3,116.3,84L116.3,84z"/> <path fill="#ef8257" d="M111.7,174l-8.1,2.2l-2.2-8.1c-0.6-2.2-3-3.5-5.2-2.9c-2.2,0.6-3.5,2.9-2.9,5.1l2.2,8.1l-8.1,2.2 c-2.2,0.6-3.6,2.9-3,5.2c0.5,1.8,2.2,3.1,4.1,3.1c0.4,0,0.7,0,1.1-0.1l8.1-2.2l2.2,8.1c0.6,2.2,2.9,3.6,5.1,3c0,0,0,0,0,0 c2.2-0.6,3.6-2.9,3-5.2l-2.2-8.1l8.1-2.2c2.2-0.6,3.6-2.9,3-5.2C116.3,174.7,114,173.4,111.7,174C111.7,174,111.7,174,111.7,174 L111.7,174z M193.9,84.3c-0.6,2.2,0.7,4.6,3,5.2l8.1,2.2l-2.2,8.1c-0.6,2.2,0.7,4.6,3,5.2c0.4,0.1,0.7,0.1,1.1,0.1 c1.9,0,3.6-1.3,4.1-3.1l2.2-8.1l8.1,2.2c2.2,0.6,4.6-0.7,5.2-3c0,0,0,0,0,0c0.6-2.2-0.7-4.6-3-5.2l-8.1-2.2l2.2-8.1 c0.6-2.3-0.8-4.5-3.1-5.1c-2.2-0.5-4.4,0.7-5.1,2.9l-2.2,8.1l-8.1-2.2C196.8,80.8,194.5,82.1,193.9,84.3L193.9,84.3z M33.1,99.3 l-7.1,4.6l-4.6-7.1c-1.3-2-3.9-2.5-5.8-1.2c0,0,0,0,0,0c-2,1.3-2.5,3.9-1.2,5.8l4.6,7.1l-7.1,4.6c-2,1.3-2.5,3.9-1.2,5.8 c0.8,1.2,2.1,1.9,3.5,1.9c0.8,0,1.6-0.2,2.3-0.7l7.1-4.6l4.6,7.1c0.8,1.2,2.1,1.9,3.5,1.9c0.8,0,1.6-0.2,2.3-0.7 c1.9-1.3,2.5-3.9,1.2-5.8l-4.6-7.1l7.1-4.6c2-1.3,2.5-3.9,1.2-5.8C37.7,98.6,35.1,98.1,33.1,99.3C33.1,99.3,33.1,99.3,33.1,99.3 L33.1,99.3z M134.3,130.8c2.3,0,4.2-1.9,4.2-4.2c0-9.3,7.6-16.8,16.8-16.8c2.3,0,4.2-1.9,4.2-4.2c0-2.3-1.9-4.2-4.2-4.2 c-13.9,0-25.3,11.3-25.3,25.3C130.1,128.9,132,130.8,134.3,130.8L134.3,130.8z M152.2,213.1c-6,7.1-16.6,8-23.7,2.1 c-1.8-1.5-4.4-1.3-5.9,0.5c-1.5,1.8-1.3,4.4,0.5,5.9c4.5,3.8,10.3,5.9,16.2,5.9c7.2,0,14.4-3.1,19.4-9c1.5-1.8,1.3-4.4-0.5-5.9 c0,0,0,0,0,0C156.4,211.1,153.7,211.4,152.2,213.1C152.2,213.1,152.2,213.1,152.2,213.1L152.2,213.1z M162.8,53.4 c3.3,1.6,7,2.4,10.6,2.4c9.5,0,18.7-5.4,22.9-14.6c1-2.1,0.1-4.6-2-5.6c-2.1-1-4.6-0.1-5.6,2c-3.9,8.4-14,12.1-22.4,8.1 c-2.1-1-4.6-0.1-5.6,2C159.7,49.9,160.7,52.4,162.8,53.4L162.8,53.4z"/></g>
</svg>