<?xml version="1.0" encoding="utf-8"?>
<!-- Svg Vector Icons : http://www.onlinewebfonts.com/icon -->
<!DOCTYPE svg PUBLIC "-//W3C//DTD SVG 1.1//EN" "http://www.w3.org/Graphics/SVG/1.1/DTD/svg11.dtd">
<svg version="1.1" xmlns="http://www.w3.org/2000/svg" xmlns:xlink="http://www.w3.org/1999/xlink" x="0px" y="0px" viewBox="0 0 256 256" enable-background="new 0 0 256 256" xml:space="preserve">
<metadata> Svg Vector Icons : http://www.onlinewebfonts.com/icon </metadata>
<g> <path fill="#cf7f34" d="M87.9,97.1c0,2.9-2.4,5.3-5.3,5.3H44.7c-2.9,0-5.3-2.4-5.3-5.3V42.4c0-2.9,2.4-5.3,5.3-5.3h37.9 c2.9,0,5.3,2.4,5.3,5.3V97.1z"/> <path fill="#040000" d="M39.4,46.1h28v13.5h-28V46.1z M59.9,66.9h28v13.5h-28V66.9z"/> <path fill="#d1d3d3" d="M29.6,100.7v109.8h196.8V100.7L128,39.3L29.6,100.7z"/> <path fill="#040000" d="M128,39.3l-98.4,61.4V123L128,61.6l98.4,61.4v-22.3L128,39.3z"/> <path fill="#040000" d="M198.4,122h28v13.5h-28V122z M160.1,183.1h28v13.5h-28V183.1z M125.6,121.8h28v13.5h-28V121.8z M29.6,154.7 h28v13.5h-28V154.7z M51.6,106.4h28v13.5h-28V106.4z"/> <path fill="#cf7f34" d="M104,144.5H152v66.1H104V144.5z"/> <path fill="#ffffff" d="M118.6,168.2c0,5.2,4.2,9.4,9.4,9.4c5.2,0,9.4-4.2,9.4-9.4c0,0,0,0,0,0c0-5.2-4.2-9.4-9.4-9.4 C122.8,158.8,118.6,163,118.6,168.2C118.6,168.2,118.6,168.2,118.6,168.2z"/> <path fill="#ffffff" d="M108,88.5c0,11.1,8.9,20,20,20c11.1,0,20-8.9,20-20c0,0,0,0,0,0c0-11.1-9-20-20-20S108,77.5,108,88.5 L108,88.5z"/> <path fill="#040000" d="M128,68.5c-11.1,0-20,9-20,20c0,1.2,0.1,2.4,0.3,3.5c1.7-9.4,9.8-16.5,19.7-16.5c9.8,0,18,7.1,19.7,16.5 c0.2-1.2,0.3-2.3,0.3-3.5C148,77.5,139,68.5,128,68.5z"/> <path fill="#cf7f34" d="M148,84.6h-16v-16h-8v16h-16v8h16v16h8v-16h16V84.6z"/> <path fill="#f5b326" d="M128,72.5c-8.8,0-16,7.2-16,16c0,8.8,7.2,16,16,16c8.8,0,16-7.2,16-16C144,79.7,136.9,72.5,128,72.5z  M128,112.5c-13.2,0-24-10.8-24-24c0-13.2,10.8-24,24-24c13.2,0,24,10.8,24,24C152,101.8,141.2,112.5,128,112.5z"/> <path fill="#040000" d="M104,144.5H152v8.3H104V144.5z"/> <path fill="#ffffff" d="M174.7,128.7h34.4v38.9h-34.4V128.7z"/> <path fill="#040000" d="M174.7,128.7h34.4v8.6h-34.4V128.7z"/> <path fill="#cf7f34" d="M174.7,144.1h34.4v8h-34.4V144.1z"/> <path fill="#f5b326" d="M178.6,163.6h26.4v-30.9h-26.4V163.6z M209.1,171.5h-34.4c-2.2,0-4-1.8-4-4v-38.9c0-2.2,1.8-4,4-4h34.4 c2.2,0,4,1.8,4,4v38.9C213,169.7,211.2,171.5,209.1,171.5z"/> <path fill="#1aa565" d="M246,222.5c0,1.4-1.2,2.6-2.6,2.6H12.6c-1.4,0-2.6-1.2-2.6-2.6v-9.3c0-1.4,1.2-2.6,2.6-2.6h230.8 c1.4,0,2.6,1.2,2.6,2.6V222.5z"/> <path fill="#333e48" d="M88.8,210.6h78.3v14.6H88.8V210.6z"/> <path fill="#f5b326" d="M235.7,114.9c-1.5,0-3.1-0.4-4.5-1.3L128,49.3L24.7,113.7c-4,2.5-9.2,1.3-11.7-2.7c-2.5-4-1.3-9.2,2.7-11.7 l107.7-67.1c2.7-1.7,6.2-1.7,9,0l107.7,67.1c4,2.5,5.2,7.7,2.7,11.7C241.3,113.5,238.6,114.9,235.7,114.9L235.7,114.9z"/> <path fill="#248248" d="M237.9,210.6c0-17.4-14.1-31.5-31.5-31.5c-17.4,0-31.5,14.1-31.5,31.5H237.9L237.9,210.6z M18.1,210.6 c0-17.4,14.1-31.5,31.5-31.5c17.4,0,31.5,14.1,31.5,31.5H18.1z"/> <path fill="#ffffff" d="M48.8,128.1h34.4V167H48.8V128.1z"/> <path fill="#040000" d="M48.8,128.1h34.4v8.6H48.8V128.1z"/> <path fill="#cf7f34" d="M48.8,143.6h34.4v8H48.8V143.6z"/> <path fill="#f5b326" d="M52.8,163h26.4v-30.9H52.8V163z M83.2,171H48.8c-2.2,0-4-1.8-4-4v-38.9c0-2.2,1.8-4,4-4h34.4 c2.2,0,4,1.8,4,4V167C87.2,169.2,85.4,171,83.2,171z"/></g>
</svg>