<?xml version="1.0" encoding="utf-8"?>
<!-- Svg Vector Icons : http://www.onlinewebfonts.com/icon -->
<!DOCTYPE svg PUBLIC "-//W3C//DTD SVG 1.1//EN" "http://www.w3.org/Graphics/SVG/1.1/DTD/svg11.dtd">
<svg version="1.1" xmlns="http://www.w3.org/2000/svg" xmlns:xlink="http://www.w3.org/1999/xlink" x="0px" y="0px" viewBox="0 0 256 256" enable-background="new 0 0 256 256" xml:space="preserve">
<metadata> Svg Vector Icons : http://www.onlinewebfonts.com/icon </metadata>
<g><g><g><g><path fill="#000000" d="M155.4 39.6a24.1 24.1 0 1 0 48.2 0a24.1 24.1 0 1 0 -48.2 0z"/><path fill="#000000" d="M242.1,45.1c-4.2-3-10-2-13.1,2.2c-7.9,11.1-29.6,26.6-49.2,18.7c0,0-2.3-1-5-1.6c-3.1-0.7-7.6-0.6-8.7-0.4c-0.1,0-0.1,0-0.2,0c-31.6,3.4-49.3,27.1-59.7,44.7c-2.6,4.4-1.2,10.2,3.2,12.8c0.5,0.3,1,0.5,1.5,0.7c-1.6,11.5,0.8,22.1,3.2,32.4c1.9,8.2,3.9,16.6,3.7,25.4c-0.2,9.2-3.5,16.1-9.1,18.8c-6.4,3.1-15.2,0.8-24.4-6.1l-3,4c7.3,5.6,14.7,8.5,21.3,8.5c3,0,5.8-0.6,8.3-1.8c7.4-3.6,11.7-12,11.9-23.2c0.2-9.4-1.9-18.1-3.9-26.6c-2.4-10.3-4.7-20.2-3.1-30.8c2.6-0.5,4.9-2,6.4-4.4c5.8-9.7,13.4-20.5,24.1-27.7l-8.5,39.8c-1.1,5.1,0.3,9.9,3.2,13.7l-2.7,35.8c-1.2,5.8-12.1,25.5-22.8,42.2c-3.5,5.5-1.9,12.9,3.6,16.4c2,1.3,4.2,1.9,6.4,1.9c3.9,0,7.8-2,10-5.5c12.6-19.8,26.5-43.8,26.5-54.6c0-3.8,0.5-11.2,1.1-18.5c5.9,9,12.7,19.5,14.7,23.6c1.5,4.9,1.4,25.8,0.5,42.5c-0.4,6.6,4.6,12.2,11.2,12.6c0.2,0,0.5,0,0.7,0c6.3,0,11.5-4.9,11.9-11.2c1.1-19.7,1.6-45.1-2.7-53.9c-3.3-6.9-14.8-24.2-19.9-31.8c0.6-1.2,1.1-2.5,1.4-3.9l11.2-52c0,0,0-0.1,0-0.2c0.1,0,0.3,0,0.4,0c21,0,40.1-13.2,51.5-29.3C247.3,54,246.3,48.1,242.1,45.1z"/><path fill="#000000" d="M27.2,183.2l-9.3-7.4c-2.1-1.7-5.2-1.3-6.8,0.7c-1.7,2.1-1.3,5.2,0.7,6.8l9.4,7.6v20.6c0,0.1-8.3,16.3-8.3,16.3c-1.3,2.4-0.3,5.3,2.1,6.6c0.7,0.4,1.5,0.6,2.2,0.6c1.8,0,3.4-1,4.3-2.6l8.4-16.1l9.4,16.3c0.9,1.6,2.5,2.4,4.2,2.4c0.8,0,1.7-0.2,2.4-0.7c2.3-1.3,3.1-4.3,1.8-6.6l-8.2-14.2h30.2v16.6c0,2.7,2.2,4.9,4.9,4.9s4.9-2.2,4.9-4.9v-18.4c0-0.1,0-0.1,0-0.2v-15.4l-22.6-13L27.2,183.2L27.2,183.2z"/><path fill="#000000" d="M85.4,188.2c0.8,0.3,1.6,0.7,2.4,1c2.3,1,4.8,1.5,7.3,1.3c4.4-0.2,8.9-2.6,9.3-7.8c0.4-4.8-11.2-8.5-12.2-9.5c-3-2.8-4-6.1-7.4-8.5c-0.6-0.4-1.2-0.8-1.8-1.2c-0.4-0.2-0.5-0.5-0.5-0.9c0.1-1.4,0.3-2.8,0.4-4.2c0.2-2.5-0.5-4.8-2.5-6.3c-0.8-0.6-4.8-2.5-6.5,4.1c-0.4,1.4-0.9,2.9-1.6,4.2c-2.5,4.8-5.7,9.2-8.7,13.7c-1.4,2-2.8,4.1-4.1,6.1l21.3,12.1C80.7,192.4,84.8,187.9,85.4,188.2z"/></g></g><g></g><g></g><g></g><g></g><g></g><g></g><g></g><g></g><g></g><g></g><g></g><g></g><g></g><g></g><g></g></g></g>
</svg>