<?xml version="1.0" encoding="utf-8"?>
<!-- Svg Vector Icons : http://www.onlinewebfonts.com/icon -->
<!DOCTYPE svg PUBLIC "-//W3C//DTD SVG 1.1//EN" "http://www.w3.org/Graphics/SVG/1.1/DTD/svg11.dtd">
<svg version="1.1" xmlns="http://www.w3.org/2000/svg" xmlns:xlink="http://www.w3.org/1999/xlink" x="0px" y="0px" viewBox="0 0 256 256" enable-background="new 0 0 256 256" xml:space="preserve">
<metadata> Svg Vector Icons : http://www.onlinewebfonts.com/icon </metadata>
<g> <path fill="#4da74f" d="M173.1,58l-2.6-2c1.1-2.2,2.1-5.7,2.6-6.4L185,37.2c0.9-1.3,0.9-3,0.2-4.3c-0.7-1.4-2.2-2.2-3.7-2.2h-54.8 c-1.6,0-3,0.9-3.7,2.2c-0.7,1.4-0.7,3,0.2,4.3l11.9,12.4c0.5,0.8,1.6,4.2,2.6,6.4l-2.6,2c-20.3,15.8-35.8,48-35.8,71.7 c0,35.8,27.9,35.8,54.8,35.8c26.9,0,54.8,0,54.8-35.8C209,106,193.4,73.8,173.1,58L173.1,58z"/> <path fill="#2f7939" d="M135.2,49.6h38V58h-38V49.6z"/> <path fill="#c6e2c6" d="M130.5,110.4c0,13.1,10.6,23.8,23.8,23.8c13.1,0,23.8-10.6,23.8-23.8c0,0,0,0,0,0 c0-13.1-10.7-23.8-23.8-23.8C141.1,86.6,130.5,97.3,130.5,110.4L130.5,110.4z"/> <path fill="#f5c432" d="M73.7,158.8c0,0,7.5,2,11.6-3.4l7.3-6.6c3.6-3.2,8.3-4.9,13.2-4.6c14.9,0.7,48.5,2.1,68.5,0.2 c2.2-0.2,3.7,2,2.8,4l-1.1,2.5c-3.1,7-10,11.4-17.6,11.4h-18c0,0-6.5-1.4-7.5,7.3v4.3c0,3.4,2.8,6.2,6.2,6.2h23.8 c8.6,0,17-2.8,23.8-8.1c4.1-3.2,8.8-7.1,13.3-11.5c3.2-3.2,7.6-4.9,12.1-4.9h23.1c3.1,0,6.1,0.8,8.7,2.4c2.5,1.5,2.8,5.1,0.6,6.9 l-40,33.2c-8,6.6-18.1,10.2-28.5,10.2H73.7V158.8z"/> <path fill="#eceef0" d="M70.3,216.5H59.2c-2.5,0-4.5-2-4.5-4.5v-62.6c0-2.5,2-4.5,4.5-4.5h11.2c2.5,0,4.5,2,4.5,4.5V212 C74.8,214.5,72.8,216.5,70.3,216.5L70.3,216.5z"/> <path fill="#455963" d="M59.2,225.4H14.5c-2.5,0-4.5-2-4.5-4.5v-80.5c0-2.5,2-4.5,4.5-4.5h44.7c2.5,0,4.5,2,4.5,4.5v80.5 C63.7,223.4,61.7,225.4,59.2,225.4z"/> <path fill="#4da74f" d="M163.7,114.7c0,2-0.7,3.7-2,4.9c-1.4,1.3-3.1,2-5.3,2.3v3.8h-3.4v-3.7c-3.4-0.1-6.1-1.2-8.1-3.2l3.1-3.1 c1.3,1.3,3.1,2,5.4,2v-6.2l-1.1-0.1c-2.1-0.3-3.6-1-4.7-2c-1.2-1.2-1.7-2.7-1.7-4.8c0-2,0.6-3.6,1.9-5c1.3-1.3,3-2.1,5.2-2.4v-3.1 h3.4v3.1c2.7,0.2,5,1.1,6.7,2.8l-3,3c-1-1-2.4-1.5-4.2-1.7v6l1.3,0.2c2.1,0.3,3.6,1,4.7,1.9C163,110.8,163.7,112.5,163.7,114.7z  M153.3,107.3v-5.7c-1,0.1-1.7,0.5-2.2,1c-0.5,0.6-0.8,1.2-0.8,2c0,0.7,0.2,1.3,0.7,1.7C151.6,106.8,152.3,107.1,153.3,107.3z  M159,114.9c0-0.9-0.3-1.6-0.7-2c-0.4-0.4-1.2-0.7-2.4-0.9v5.9C158,117.6,159,116.6,159,114.9L159,114.9z"/></g>
</svg>