<?xml version="1.0" encoding="utf-8"?>
<!-- Svg Vector Icons : http://www.onlinewebfonts.com/icon -->
<!DOCTYPE svg PUBLIC "-//W3C//DTD SVG 1.1//EN" "http://www.w3.org/Graphics/SVG/1.1/DTD/svg11.dtd">
<svg version="1.1" xmlns="http://www.w3.org/2000/svg" xmlns:xlink="http://www.w3.org/1999/xlink" x="0px" y="0px" viewBox="0 0 256 256" enable-background="new 0 0 256 256" xml:space="preserve">
<metadata> Svg Vector Icons : http://www.onlinewebfonts.com/icon </metadata>
<g><g><path fill="#000000" d="M206.7,24.3c7.9,0,14.3,6.4,14.3,14.3v178.8c0,7.9-6.4,14.3-14.3,14.3H49.3c-7.9,0-14.3-6.4-14.3-14.3V38.6c0-7.9,6.4-14.3,14.3-14.3H206.7 M206.7,10H49.3c-15.8,0-28.6,12.8-28.6,28.6v178.8c0,15.8,12.8,28.6,28.6,28.6h157.3c15.8,0,28.6-12.8,28.6-28.6V38.6C235.3,22.8,222.5,10,206.7,10L206.7,10z"/><path fill="#000000" d="M188.8,70.8H74.4c-3.9,0-7.2,3.2-7.2,7.2c0,3.9,3.2,7.2,7.2,7.2h114.4c3.9,0,7.2-3.2,7.2-7.2C195.9,74,192.7,70.8,188.8,70.8L188.8,70.8z"/><path fill="#000000" d="M188.8,120.8H74.4c-3.9,0-7.2,3.2-7.2,7.2c0,3.9,3.2,7.2,7.2,7.2h114.4c3.9,0,7.2-3.2,7.2-7.2C195.9,124.1,192.7,120.8,188.8,120.8L188.8,120.8z"/><path fill="#000000" d="M188.8,170.9H74.4c-3.9,0-7.2,3.2-7.2,7.2c0,3.9,3.2,7.2,7.2,7.2h114.4c3.9,0,7.2-3.2,7.2-7.2C195.9,174.1,192.7,170.9,188.8,170.9L188.8,170.9z"/></g></g>
</svg>