<?xml version="1.0" encoding="utf-8"?>
<!-- Svg Vector Icons : http://www.onlinewebfonts.com/icon -->
<!DOCTYPE svg PUBLIC "-//W3C//DTD SVG 1.1//EN" "http://www.w3.org/Graphics/SVG/1.1/DTD/svg11.dtd">
<svg version="1.1" xmlns="http://www.w3.org/2000/svg" xmlns:xlink="http://www.w3.org/1999/xlink" x="0px" y="0px" viewBox="0 0 256 256" enable-background="new 0 0 256 256" xml:space="preserve">
<metadata> Svg Vector Icons : http://www.onlinewebfonts.com/icon </metadata>
<g> <path fill="#ae8047" d="M191.2,71c-6.3,22.1-22.6,36.9-36.3,32.9c-13.8-4-19.8-25.1-13.5-47.2c6.3-22.1,22.6-36.9,36.3-32.9 C191.5,27.7,197.5,48.8,191.2,71z M82.4,19.4c-14.1,2.3-22.7,22.5-19,45.3c3.6,22.7,18,39.3,32.1,37.1c14.1-2.3,22.7-22.5,19-45.3 C110.9,33.7,96.5,17.1,82.4,19.4z M23.7,80.9c-13.1,5.2-17.6,25.1-9.9,44.4c7.6,19.3,24.5,30.6,37.6,25.4s17.6-25.1,9.9-44.4 C53.6,87.1,36.8,75.7,23.7,80.9z M234.1,90.3c-11.9-5-27.5,4.8-34.9,22c-7.4,17.2-3.8,35.1,8.1,40.2c11.9,5,27.5-4.8,34.9-22 C249.6,113.3,246,95.3,234.1,90.3L234.1,90.3z"/> <path fill="#4a4465" d="M84.2,236.8L84.2,236.8c-12.7,0-23-3.9-30.6-11.5c-5.8-5.8-10.7-17.6-1.1-40.7c6.3-15.2,17.6-32,30.3-44.9 c10.7-11,27.1-24,44.1-24c0.5,0,1,0,1.5,0c11.6,0.5,25.2,6.4,38.3,16.6c12.2,9.6,22.8,21.9,29.8,34.6c10.4,19,11.7,37,3.6,50.9 c-6.1,10.6-16.1,16-29.6,16c-7.8,0-15.6-1.7-23.1-3.4c-5.9-1.3-11.5-2.5-15.6-2.5c-0.8,0-1.6,0.1-2.2,0.2 c-3.3,0.6-7.6,1.7-12.2,2.9C107.7,233.7,95.7,236.8,84.2,236.8L84.2,236.8z M126.9,136.2c-7.5,0-18.5,6.7-29.5,17.9 c-11,11.2-20.7,25.6-26.1,38.5c-5.3,12.7-3.8,17.9-3.3,18.4c3.7,3.7,8.9,5.5,16.1,5.5h0c8.9,0,19-2.7,28-5c5-1.3,9.8-2.6,14.1-3.3 c1.7-0.3,3.6-0.4,5.6-0.4c6.3,0,13.3,1.5,20,3c6.5,1.4,13.1,2.9,18.7,2.9c7.1,0,9.9-2.3,11.9-5.8c5.8-10,0.1-23.6-3.9-30.9 c-11.5-21-35.3-40-51.1-40.7C127.2,136.2,127.1,136.2,126.9,136.2L126.9,136.2z"/></g>
</svg>