<?xml version="1.0" encoding="utf-8"?>
<!-- Svg Vector Icons : http://www.onlinewebfonts.com/icon -->
<!DOCTYPE svg PUBLIC "-//W3C//DTD SVG 1.1//EN" "http://www.w3.org/Graphics/SVG/1.1/DTD/svg11.dtd">
<svg version="1.1" xmlns="http://www.w3.org/2000/svg" xmlns:xlink="http://www.w3.org/1999/xlink" x="0px" y="0px" viewBox="0 0 256 256" enable-background="new 0 0 256 256" xml:space="preserve">
<metadata> Svg Vector Icons : http://www.onlinewebfonts.com/icon </metadata>
<g> <path fill="#f9f1b2" d="M236.8,96.5c0,16.5-46.1,29.8-103,29.8c-56.9,0-103-13.4-103-29.8s46.1-28,103-28 C190.7,68.5,236.8,80.1,236.8,96.5z"/> <path fill="#f9f1b2" d="M30.8,97.5c-2.2,12.9-10,51.3-10.4,60.1c-0.1,0.4-0.1,0.7-0.1,1.1c0,0.2,0,0.4,0,0.5v0.2 c0,0.5,0.1,0.9,0.3,1.3c4,14.9,52,26.8,110.6,26.8c58.5,0,110.3-9.6,114.5-24.5c0.1-0.5,0.2-0.9,0.3-1.4v-0.6c0,0,0-0.7-0.1-1 c-0.4-8.6-6.9-51.1-9.2-63.1"/> <path fill="#ffffff" d="M52.8,93.5c0,11.9,36.3,21.6,81,21.6c44.8,0,81-9.7,81.1-21.6c0,0,0,0,0,0c0-11.9-36.3-21.6-81-21.6 C89,71.9,52.8,81.6,52.8,93.5L52.8,93.5z"/> <path fill="#333333" d="M124.7,127.6c-27.6,0-53.6-3.1-73.2-8.8c-20-5.8-31.1-13.7-31.1-22.3s10.8-16,31.1-21.4 c19.1-5.1,45.1-7.9,73.1-7.9c28,0,54,2.8,73.1,7.9c20.3,5.4,31.1,12.8,31.1,21.4s-11,16.5-31.1,22.3 C178.3,124.5,152.3,127.6,124.7,127.6z M124.7,69.8C67.7,69.8,23,81.5,23,96.5c0,7.3,10.7,14.5,29.3,19.9 c19.3,5.6,45.1,8.7,72.5,8.7s53.1-3.1,72.5-8.7c18.6-5.4,29.3-12.6,29.3-19.9C226.4,81.5,181.8,69.8,124.7,69.8z"/> <path fill="#333333" d="M124.7,116.3c-21.8,0-42.2-2.3-57.6-6.4c-11.3-3-24.7-8.3-24.7-16.5S55.8,80,67.1,77 c15.4-4.1,35.9-6.4,57.6-6.4c21.8,0,42.2,2.3,57.6,6.4c11.3,3,24.7,8.3,24.7,16.5c0,8.2-13.4,13.5-24.7,16.5 C166.9,114.1,146.5,116.3,124.7,116.3z M124.7,73.2c-47.7,0-79.8,10.5-79.8,20.3c0,9.8,32.1,20.3,79.8,20.3 c47.7,0,79.8-10.5,79.8-20.3C204.5,83.7,172.4,73.2,124.7,73.2z"/> <path fill="#333333" d="M122.1,188.7c-28.4,0-55.4-2.8-76.1-7.8c-14.8-3.6-33-10-35.7-19.8c-0.2-0.6-0.3-1.1-0.3-1.7v-0.1 c0-0.2,0-0.4,0-0.5c0-0.4,0-0.8,0.1-1.2c0.3-6.2,4.1-26.3,7.1-42.4c1.4-7.4,2.6-13.7,3.3-17.7c0.1-0.7,0.8-1.1,1.5-1 c0.7,0.1,1.1,0.8,1,1.5l0,0c-0.7,4-1.9,10.4-3.3,17.8c-3.1,16.1-6.8,36.2-7.1,42.1v0.1c0,0.3-0.1,0.6-0.1,0.9c0,0.1,0,0.3,0,0.4 v0.3c0,0.3,0.1,0.6,0.2,0.8l0,0.1c1.8,6.7,14.1,13.3,33.9,18.1c20.5,5,47.3,7.7,75.5,7.7c29,0,56.5-2.4,77.4-6.7 c21.3-4.4,34.1-10.4,35.9-17l0.1-0.2c0.1-0.3,0.2-0.7,0.2-1v-0.6c0-0.1,0-0.6-0.1-0.8v-0.1c-0.3-8.6-7-51.2-9.1-62.9 c-0.1-0.7,0.3-1.3,1-1.5c0.7-0.1,1.3,0.3,1.5,1c2.2,11.7,8.8,54.5,9.2,63.2c0,0.4,0.1,1,0.1,1.1v0.8c-0.1,0.6-0.2,1.1-0.4,1.7 c-2.8,9.6-22.1,15.5-37.8,18.7C179,186.3,151.3,188.7,122.1,188.7L122.1,188.7z"/> <path fill="#efd460" d="M96,137.2c10.7,1.2,12.4,11.7,12.4,18.1c0,1.7-0.2,3.4-0.5,5.1c-1.5,7.5-3.3,12.1-11.9,13 c-6.7,0.7-18.9-8.4-5.5-17.5c0.3-0.2,0.5-0.6,0.3-0.9c-0.1-0.1-0.1-0.2-0.2-0.3C76.7,144.6,89.3,136.4,96,137.2z M161.8,137.2 c-10.7,1.2-12.4,11.7-12.4,18.1c0,1.7,0.2,3.4,0.5,5.1c1.5,7.5,3.3,12.1,11.9,13c6.7,0.7,18.9-8.4,5.5-17.5 c-0.3-0.2-0.5-0.6-0.3-0.9c0.1-0.1,0.1-0.2,0.2-0.3C181,144.6,168.4,136.4,161.8,137.2L161.8,137.2z"/> <path fill="#efd460" d="M106.8,145.3c25.4,13.7,44.2,0,44.2,0l0.4,20.8"/> <path fill="#efd460" d="M106.8,145.3c0,0,1.8,13.1-0.2,20.8c0,0,19.4-13.7,44.8,0"/> <path fill="#040000" d="M92.2,174c-4,0-9.4-2.9-11-7.2c-0.8-2.3-1.1-6.8,5.9-11.5c0.1,0,0.1-0.1,0.1-0.1c0,0,0-0.1-0.1-0.1 c-6.9-5-7-9.3-6-12c1.7-4.4,7.7-7.1,11.9-6.6c4.9,0.6,8.5,3.1,10.7,7.4c1.9,3.8,2.3,8.2,2.3,11.3c0,1.8-0.2,3.5-0.5,5.2 C104,167.8,102.3,173,93,174C92.8,174,92.5,174,92.2,174z M92.1,137.8c-3.6,0-8.4,2.4-9.7,5.9c-1.3,3.3,0.6,6.9,5.6,10.5 c0.4,0.3,0.6,0.7,0.6,1.1c0,0.4-0.3,0.9-0.6,1.1c-4.8,3.2-6.6,6.7-5.4,10c1.4,4,6.9,6.7,10.5,6.3c8.4-0.9,9.9-5.3,11.4-12.5 c0.3-1.6,0.5-3.3,0.5-5c0-6-1.5-16.3-11.9-17.4C92.6,137.8,92.3,137.8,92.1,137.8z M159.5,174c-0.3,0-0.5,0-0.8,0 c-9.3-0.9-11-6.2-12.5-13.5c-0.3-1.7-0.5-3.5-0.5-5.2c0-3.1,0.4-7.5,2.3-11.3c2.2-4.4,5.8-6.9,10.7-7.4c4.2-0.5,10.2,2.3,11.9,6.6 c1.1,2.7,0.9,7-6,12c-0.1,0-0.1,0.1-0.1,0.1c0,0,0,0,0.1,0.1c7,4.7,6.7,9.2,5.9,11.5C168.9,171.1,163.5,174,159.5,174L159.5,174z  M158.7,137.2l0.1,0.6c-10.3,1.2-11.9,11.4-11.9,17.4c0,1.7,0.2,3.3,0.5,5c1.5,7.2,2.9,11.6,11.4,12.5c3.6,0.4,9-2.4,10.5-6.3 c1.2-3.3-0.7-6.8-5.4-10c-0.4-0.2-0.6-0.7-0.6-1.1c0-0.4,0.2-0.9,0.6-1.1c4.9-3.6,6.8-7.2,5.6-10.5c-1.5-3.8-6.9-6.2-10.6-5.8 L158.7,137.2z"/> <path fill="#040000" d="M148.1,166.7c-13-7-24.3-6.6-31.5-5.1c-7.8,1.7-12.6,5-12.6,5l-0.7-1c0.2-0.1,5-3.5,13.1-5.2 c7.4-1.6,19.1-2,32.3,5.2L148.1,166.7z M126.6,152c-6.5,0-14.4-1.5-23.1-6.1l0.6-1.1c12.9,7,24.1,6.6,31.2,5.1 c7.7-1.7,12.3-5,12.3-5l0.7,1c-0.2,0.1-4.9,3.5-12.8,5.2C132.6,151.7,129.6,152,126.6,152z"/></g>
</svg>