<svg width="24" height="24" viewBox="0 0 24 24" fill="none" xmlns="http://www.w3.org/2000/svg">
<path fill-rule="evenodd" clip-rule="evenodd" d="M2.75 11.5C2.75 6.66751 6.66751 2.75 11.5 2.75C16.3325 2.75 20.25 6.66751 20.25 11.5C20.25 16.3325 16.3325 20.25 11.5 20.25C6.66751 20.25 2.75 16.3325 2.75 11.5ZM11.5 1.25C5.83908 1.25 1.25 5.83908 1.25 11.5C1.25 17.1609 5.83908 21.75 11.5 21.75C14.0605 21.75 16.4017 20.8111 18.1982 19.2589L21.4697 22.5303C21.7626 22.8232 22.2374 22.8232 22.5303 22.5303C22.8232 22.2374 22.8232 21.7626 22.5303 21.4697L19.2589 18.1982C20.8111 16.4017 21.75 14.0605 21.75 11.5C21.75 5.83908 17.1609 1.25 11.5 1.25Z" fill="#CECFD4"/>
<path d="M18.1982 19.2589L18.7285 18.7285L18.2355 18.2355L17.7078 18.6914L18.1982 19.2589ZM21.4697 22.5303L20.9393 23.0607L20.9393 23.0607L21.4697 22.5303ZM22.5303 22.5303L23.0607 23.0607L23.0607 23.0607L22.5303 22.5303ZM22.5303 21.4697L23.0607 20.9393L23.0607 20.9393L22.5303 21.4697ZM19.2589 18.1982L18.6914 17.7078L18.2355 18.2355L18.7285 18.7285L19.2589 18.1982ZM11.5 2C6.2533 2 2 6.2533 2 11.5H3.5C3.5 7.08172 7.08172 3.5 11.5 3.5V2ZM21 11.5C21 6.2533 16.7467 2 11.5 2V3.5C15.9183 3.5 19.5 7.08172 19.5 11.5H21ZM11.5 21C16.7467 21 21 16.7467 21 11.5H19.5C19.5 15.9183 15.9183 19.5 11.5 19.5V21ZM2 11.5C2 16.7467 6.2533 21 11.5 21V19.5C7.08172 19.5 3.5 15.9183 3.5 11.5H2ZM2 11.5C2 6.25329 6.25329 2 11.5 2V0.5C5.42487 0.5 0.5 5.42487 0.5 11.5H2ZM11.5 21C6.25329 21 2 16.7467 2 11.5H0.5C0.5 17.5751 5.42487 22.5 11.5 22.5V21ZM17.7078 18.6914C16.0424 20.1304 13.8737 21 11.5 21V22.5C14.2473 22.5 16.761 21.4919 18.6886 19.8264L17.7078 18.6914ZM22 22L18.7285 18.7285L17.6679 19.7892L20.9393 23.0607L22 22ZM22 22H22L20.9393 23.0607C21.5251 23.6464 22.4749 23.6464 23.0607 23.0607L22 22ZM22 22V22L23.0607 23.0607C23.6464 22.4749 23.6464 21.5251 23.0607 20.9393L22 22ZM18.7285 18.7285L22 22L23.0607 20.9393L19.7892 17.6679L18.7285 18.7285ZM21 11.5C21 13.8737 20.1304 16.0424 18.6914 17.7078L19.8264 18.6886C21.4919 16.761 22.5 14.2473 22.5 11.5H21ZM11.5 2C16.7467 2 21 6.25329 21 11.5H22.5C22.5 5.42487 17.5751 0.5 11.5 0.5V2Z" fill="black"/>
</svg>
