<?xml version="1.0" encoding="utf-8"?>
<!-- Svg Vector Icons : http://www.onlinewebfonts.com/icon -->
<!DOCTYPE svg PUBLIC "-//W3C//DTD SVG 1.1//EN" "http://www.w3.org/Graphics/SVG/1.1/DTD/svg11.dtd">
<svg version="1.1" xmlns="http://www.w3.org/2000/svg" xmlns:xlink="http://www.w3.org/1999/xlink" x="0px" y="0px" viewBox="0 0 256 256" enable-background="new 0 0 256 256" xml:space="preserve">
<metadata> Svg Vector Icons : http://www.onlinewebfonts.com/icon </metadata>
<g><g><g><path fill="#000000" d="M123.4,10.6c-1.4,0.4-3.4,1.3-4.4,1.9c-4.4,2.6-5,3.7-19.6,34.8c-7.5,16-13.8,29.3-14,29.6C85.1,77,70.9,79.4,53.8,82c-28.7,4.4-31.4,4.9-34,6.2c-9,4.4-12.5,16-7.4,24.7c0.6,1.1,11.4,12.5,23.9,25.3C48.7,151,59,161.9,59,162.3c0,0.4-2.3,14.9-5.1,32.2c-5.8,35.8-5.9,36.6-3.3,41.7c1.8,3.6,5.7,7.2,9.3,8.6c3.9,1.6,9.6,1.5,13.1-0.1c1.4-0.6,14.3-7.7,28.6-15.6c14.3-8,26.3-14.5,26.5-14.5c0.3,0,12.2,6.5,26.5,14.5c14.3,7.9,27.2,15,28.6,15.6c3.5,1.6,9.2,1.6,13.1,0.1c3.8-1.5,7.7-5.2,9.4-8.9c2.3-5.2,2.3-6-3.5-41.3c-2.8-17.3-5.1-31.8-5.1-32.2c0-0.5,10.3-11.4,22.9-24.4c24.4-25.2,24.8-25.6,25.8-31.2c1-5.5-1.1-11.7-5.3-15.7c-4.2-3.9-4.1-3.9-38.3-9.1c-17.1-2.6-31.3-5-31.5-5.2c-0.2-0.2-6.5-13.6-14-29.6c-13.4-28.7-13.7-29.2-16.4-32c-2.1-2.1-3.5-3.1-5.6-3.8C131.1,10,126.6,9.7,123.4,10.6z M131.4,19.8c0.8,0.3,2,1.2,2.7,1.9c0.7,0.7,7.4,14.5,15,30.7c7.6,16.2,14.1,29.9,14.5,30.4c1.7,2.6,2.1,2.7,35.6,7.9c17.6,2.7,32.4,5.1,33.1,5.5c1.6,0.8,3.6,3,4.2,4.5c0.7,1.8,0.6,4.7-0.1,6.5c-0.3,0.8-10.7,11.9-23.6,25.1c-12.6,13-23.4,24.4-23.9,25.3c-0.5,1-0.9,2.5-0.9,3.4s2.4,16.5,5.4,34.6c5.9,36.5,5.8,34.7,2.8,38.1c-1.8,2-3.8,2.9-6.4,2.9c-2.3,0-1.2,0.6-34.9-18.2c-23.5-13.1-24.1-13.3-26.7-13.3c-2.5,0-3.1,0.3-29,14.6c-14.5,8.1-27.3,15.1-28.5,15.8c-3.8,1.9-7.7,1.3-10.4-1.8c-3-3.4-3.1-1.7,2.8-38.2c3-18.2,5.4-33.7,5.4-34.6c0-0.9-0.4-2.4-0.9-3.4c-0.5-0.9-11.3-12.4-24-25.5C26.5,115,20,108,19.5,106.8c-0.8-2.6-0.3-5.9,1.3-7.9c0.8-0.9,2-2.1,2.7-2.5c0.9-0.6,11.3-2.3,32.9-5.6c19.9-3.1,32.2-5.1,33.3-5.7c0.9-0.5,2.1-1.3,2.5-2c0.5-0.6,7-14.5,14.6-30.6c7.7-16.4,14.3-30,15-30.8C124.2,19.2,128.2,18.4,131.4,19.8z"/></g></g></g>
</svg>